<svg width="20" height="20" viewBox="0 0 20 20" fill="none" xmlns="http://www.w3.org/2000/svg">
<rect width="20" height="20" rx="10" fill="#303030"/>
<path d="M15.7929 9.51351H15.6738C14.2854 9.51351 12.897 9.51242 11.5087 9.51503C11.352 9.51525 11.2301 9.46156 11.1297 9.34332C11.0127 9.20574 10.8919 9.0712 10.771 8.93688C10.6009 8.74778 10.397 8.74495 10.2183 8.9297C10.0727 9.08033 9.92816 9.23204 9.7847 9.38505C9.70363 9.47156 9.60908 9.5146 9.4878 9.5146C7.76681 9.51286 6.04582 9.51351 4.32462 9.51329C4.29289 9.51329 4.26115 9.51047 4.20703 9.50807C4.2442 9.26942 4.27137 9.03751 4.31853 8.80973C4.36244 8.59824 4.43047 8.39219 4.48198 8.18223C4.50328 8.09573 4.54762 8.07377 4.63434 8.07399C6.43141 8.07682 8.22825 8.07443 10.0253 8.0779C10.282 8.07834 10.4885 7.99922 10.6489 7.79469C10.7378 7.68124 10.8373 7.57539 10.9367 7.47041C11.0908 7.30761 11.297 7.31261 11.4468 7.47997C11.5698 7.61712 11.6952 7.75253 11.8128 7.89446C11.9237 8.02813 12.063 8.07747 12.2325 8.07725C13.2773 8.07508 14.3224 8.07747 15.3672 8.07399C15.4628 8.07356 15.5017 8.10029 15.531 8.19353C15.6647 8.61846 15.756 9.05033 15.7925 9.51373L15.7929 9.51351Z" fill="#F5F5F5"/>
<path d="M4.77304 12.5289C4.54851 12.0668 4.39267 11.5888 4.29639 11.0763C4.34746 11.0763 4.38963 11.0763 4.4318 11.0763C5.61788 11.0763 6.80397 11.075 7.99006 11.0774C8.2261 11.0778 8.41802 10.9989 8.56886 10.8151C8.66515 10.6979 8.76687 10.5851 8.87011 10.4738C9.02204 10.3102 9.23222 10.3106 9.38176 10.4745C9.50848 10.6131 9.63497 10.7525 9.75582 10.8964C9.86428 11.0259 9.99969 11.0772 10.1655 11.077C11.97 11.0755 13.7744 11.0761 15.5787 11.0761C15.6215 11.0761 15.6643 11.0761 15.7143 11.0761C15.6243 11.5675 15.4719 12.0272 15.2683 12.4715C15.2368 12.5404 15.1868 12.5291 15.1346 12.5291C14.1076 12.5291 13.0806 12.5291 12.0537 12.5291C11.1858 12.5291 10.3179 12.5269 9.45022 12.5311C9.27374 12.5319 9.1368 12.4752 9.02487 12.3385C8.91271 12.2016 8.7923 12.0716 8.67385 11.9399C8.51974 11.7684 8.31435 11.7612 8.15285 11.9242C7.99527 12.0833 7.84769 12.2533 7.68251 12.4041C7.61578 12.4652 7.51471 12.5224 7.42886 12.5232C6.54684 12.5319 5.66461 12.5284 4.7726 12.5284L4.77304 12.5289Z" fill="#F5F5F5"/>
<path d="M14.6319 6.51725C14.3476 6.51725 14.0631 6.51725 13.7788 6.51725C13.7029 6.51725 13.6268 6.5166 13.551 6.51725C13.4167 6.51877 13.3049 6.46878 13.2156 6.36924C13.083 6.22122 12.9531 6.07103 12.8192 5.9241C12.664 5.7537 12.4571 5.74978 12.2973 5.91367C12.1536 6.06103 12.0106 6.20948 11.8717 6.36141C11.7728 6.46965 11.6576 6.51899 11.5085 6.51877C9.50586 6.51616 7.50297 6.51703 5.50029 6.51703C5.46095 6.51703 5.42161 6.51703 5.34814 6.51703C6.34383 5.24401 7.60577 4.45524 9.18331 4.25136C11.4142 3.96315 13.2269 4.75584 14.644 6.47661C14.6399 6.49008 14.6358 6.50356 14.6317 6.51703L14.6319 6.51725Z" fill="#F5F5F5"/>
<path d="M5.7749 13.972C6.01486 13.9514 6.18591 13.8316 6.32654 13.6528C6.40674 13.5508 6.49781 13.4571 6.58475 13.3602C6.73321 13.1946 6.94491 13.1894 7.09575 13.3517C7.21855 13.4841 7.33983 13.6182 7.45416 13.7577C7.57088 13.9005 7.71433 13.9581 7.89843 13.9579C9.96587 13.9549 12.0333 13.956 14.101 13.956C14.1436 13.956 14.1864 13.956 14.229 13.956C13.2414 15.0179 12.0316 15.6426 10.5942 15.7774C8.70458 15.9545 7.10009 15.3303 5.7749 13.9718V13.972Z" fill="#F5F5F5"/>
</svg>
