<svg width="28" height="28" viewBox="0 0 28 28" fill="none" xmlns="http://www.w3.org/2000/svg">
<circle cx="14" cy="14" r="14" fill="#2C374B"/>
<path d="M15.5179 13.3869L16.595 11.5592L19.4982 16.0811L19.4996 16.9489L19.4901 10.9773C19.4833 10.8313 19.4057 10.6977 19.2821 10.619L14.0551 7.61245C13.9329 7.55234 13.7778 7.55306 13.6558 7.61434C13.6393 7.62265 13.6239 7.63158 13.6091 7.64142L13.5908 7.65288L8.51719 10.593L8.49752 10.602C8.47216 10.6135 8.44662 10.6284 8.42252 10.6456C8.32632 10.7145 8.26243 10.8166 8.24176 10.9309C8.23869 10.9483 8.23634 10.966 8.23535 10.9838L8.24329 15.8501L10.9476 11.6587C11.288 11.103 12.0298 10.9238 12.7185 10.9336L13.5267 10.9549L8.76456 18.592L9.3259 18.9151L14.145 10.9627L16.2751 10.9549L11.4685 19.1081L13.4715 20.2603L13.7109 20.3978C13.8121 20.439 13.9314 20.4411 14.0335 20.4041L19.3339 17.3325L18.3205 17.9197L15.5179 13.3869ZM15.9288 19.3058L13.9057 16.1305L15.1407 14.0347L17.7977 18.2227L15.9288 19.3058Z" fill="#2D374B"/>
<path d="M13.9053 16.1307L15.9284 19.3059L17.7973 18.2229L15.1403 14.0349L13.9053 16.1307Z" fill="#28A0F0"/>
<path d="M19.4993 16.949L19.4979 16.0812L16.5947 11.5593L15.5176 13.387L18.3203 17.9198L19.3337 17.3325C19.4331 17.2519 19.4932 17.1334 19.4996 17.0056L19.4993 16.949Z" fill="#28A0F0"/>
<path d="M7.3335 17.7674L8.76455 18.592L13.5266 10.955L12.7185 10.9337C12.0299 10.924 11.288 11.103 10.9475 11.6588L8.24328 15.8501L7.3335 17.248V17.7674Z" fill="#F5F5F5"/>
<path d="M16.2749 10.9548L14.1448 10.9626L9.32568 18.915L11.0102 19.8848L11.4682 19.108L16.2749 10.9548Z" fill="#F5F5F5"/>
<path d="M20.3972 10.9439C20.3794 10.4985 20.1382 10.0907 19.7604 9.8533L14.4649 6.80799C14.0912 6.61982 13.6244 6.61955 13.2499 6.8079C13.2057 6.83019 8.10024 9.79121 8.10024 9.79121C8.02957 9.82505 7.96153 9.86539 7.89754 9.91124C7.56029 10.153 7.3547 10.5286 7.3335 10.9412V17.248L8.24328 15.8502L8.23534 10.9838C8.23642 10.9661 8.23868 10.9485 8.24175 10.9312C8.26232 10.8167 8.32631 10.7146 8.42251 10.6456C8.44661 10.6284 13.6392 7.62265 13.6557 7.61435C13.7778 7.55307 13.9328 7.55235 14.055 7.61245L19.282 10.619C19.4056 10.6977 19.4832 10.8313 19.49 10.9773V17.0054C19.4837 17.1332 19.4332 17.2517 19.3338 17.3324L18.3204 17.9196L17.7975 18.2227L15.9287 19.3057L14.0334 20.404C13.9313 20.441 13.8119 20.4389 13.7107 20.3977L11.4684 19.108L11.0103 19.8849L13.0255 21.0451C13.0921 21.083 13.1515 21.1166 13.2002 21.144C13.2757 21.1863 13.3271 21.2146 13.3452 21.2234C13.4885 21.293 13.6945 21.3334 13.8802 21.3334C14.0504 21.3334 14.2165 21.3022 14.3736 21.2406L19.8786 18.0526C20.1946 17.8078 20.3805 17.4386 20.3972 17.0387V10.9439Z" fill="#96BEDC"/>
</svg>
