<svg width="20" height="20" viewBox="0 0 20 20" fill="none" xmlns="http://www.w3.org/2000/svg">
<g clip-path="url(#clip0_279_11708)">
<path d="M10 20C15.5228 20 20 15.5228 20 10C20 4.47715 15.5228 0 10 0C4.47715 0 0 4.47715 0 10C0 15.5228 4.47715 20 10 20Z" fill="#202020"/>
<path d="M10.042 11.6532L11.814 14.4344L13.451 13.4858L11.1237 9.81763L10.042 11.6532Z" fill="#969696"/>
<path d="M14.9417 12.3702L14.9405 11.6101L12.3976 7.64941L11.4541 9.25024L13.909 13.2205L14.7966 12.7062C14.8836 12.6355 14.9363 12.5317 14.9418 12.4197L14.9417 12.3702Z" fill="#969696"/>
<path d="M4.28568 13.087L5.53911 13.8093L9.71016 7.1201L9.00224 7.1014C8.39909 7.09287 7.74938 7.24967 7.45113 7.73649L5.08251 11.4077L4.28564 12.6321V13.087H4.28568Z" fill="#969696"/>
<path d="M12.1175 7.11987L10.2518 7.12665L6.03076 14.0922L7.50612 14.9416L7.90735 14.2611L12.1175 7.11987Z" fill="#969696"/>
<path d="M15.728 7.11039C15.7124 6.72021 15.5011 6.363 15.1702 6.15505L10.532 3.48774C10.2046 3.32289 9.79568 3.32269 9.46781 3.48762C9.42906 3.50716 4.95721 6.10067 4.95721 6.10067C4.89533 6.13033 4.83573 6.16569 4.77964 6.2058C4.48422 6.41754 4.30414 6.74652 4.28564 7.10799V12.632L5.08251 11.4077L5.07553 7.14535C5.07649 7.12976 5.07844 7.11445 5.08119 7.0993C5.09917 6.999 5.15519 6.90953 5.2395 6.8491C5.26055 6.83403 9.80875 4.20136 9.82323 4.19411C9.93015 4.14041 10.066 4.13985 10.173 4.19247L14.7512 6.82593C14.8596 6.8949 14.9275 7.01187 14.9335 7.13973V12.4197C14.9279 12.5317 14.8837 12.6354 14.7966 12.7061L13.909 13.2205L13.4511 13.4859L11.8141 14.4345L10.154 15.3966C10.0646 15.4289 9.96009 15.4271 9.87142 15.391L7.90733 14.2613L7.50611 14.9418L9.27118 15.958C9.32955 15.9912 9.38158 16.0206 9.42424 16.0446C9.49034 16.0817 9.53535 16.1064 9.55125 16.1141C9.67671 16.175 9.85719 16.2105 10.0199 16.2105C10.169 16.2105 10.3144 16.1831 10.452 16.1292L15.2737 13.3368C15.5505 13.1224 15.7133 12.7991 15.728 12.4488V7.11039Z" fill="#969696"/>
</g>
<defs>
<clipPath id="clip0_279_11708">
<rect width="20" height="20" fill="white"/>
</clipPath>
</defs>
</svg>
