<svg width="20" height="20" viewBox="0 0 20 20" fill="none" xmlns="http://www.w3.org/2000/svg">
<g clip-path="url(#clip0_282_12096)">
<path d="M16.1675 3.43091H3.81885V14.6543H16.1675V3.43091Z" fill="#969696"/>
<path fill-rule="evenodd" clip-rule="evenodd" d="M19.9935 9.99989C19.9935 15.5154 15.5194 19.9866 10.0002 19.9866C4.48101 19.9866 0.00683594 15.5154 0.00683594 9.99989C0.00683594 4.48438 4.48101 0.0131836 10.0002 0.0131836C15.5194 0.0131836 19.9935 4.48438 19.9935 9.99989ZM7.16835 13.9741H5.22893C4.82139 13.9741 4.62009 13.9741 4.49735 13.8956C4.36477 13.8097 4.28376 13.6674 4.27394 13.5104C4.26657 13.3657 4.36724 13.189 4.56854 12.8357L9.35723 4.40062C9.56099 4.04243 9.66409 3.86333 9.79421 3.79709C9.93414 3.72595 10.1011 3.72595 10.241 3.79709C10.3711 3.86333 10.4742 4.04243 10.678 4.40062L11.6625 6.11796L11.6675 6.12672C11.8876 6.51099 11.9992 6.70586 12.0479 6.91038C12.1019 7.13364 12.1019 7.36915 12.0479 7.59241C11.9988 7.79849 11.8883 7.99477 11.6649 8.38485L9.14952 12.8284L9.14302 12.8398C8.92149 13.2272 8.80922 13.4236 8.65362 13.5717C8.48423 13.7337 8.28046 13.8513 8.05706 13.9177C7.85329 13.9741 7.62499 13.9741 7.16835 13.9741ZM12.0661 13.9741H14.845C15.255 13.9741 15.4613 13.9741 15.5841 13.8932C15.7166 13.8073 15.8001 13.6625 15.8075 13.5056C15.8146 13.3656 15.7161 13.1958 15.5231 12.863C15.5165 12.8517 15.5098 12.8402 15.503 12.8284L14.111 10.4487L14.0952 10.4219C13.8996 10.0913 13.8008 9.92441 13.674 9.85989C13.5342 9.78873 13.3696 9.78873 13.2297 9.85989C13.102 9.92612 12.9989 10.1003 12.7952 10.4511L11.4081 12.8309L11.4034 12.8391C11.2003 13.1893 11.0988 13.3644 11.1062 13.508C11.116 13.665 11.197 13.8097 11.3296 13.8956C11.4499 13.9741 11.6561 13.9741 12.0661 13.9741Z" fill="#202020"/>
</g>
<defs>
<clipPath id="clip0_282_12096">
<rect width="20" height="20" fill="white"/>
</clipPath>
</defs>
</svg>
