<svg width="28" height="28" viewBox="0 0 28 28" fill="none" xmlns="http://www.w3.org/2000/svg">
<g clip-path="url(#clip0_165_12055)">
<path d="M22.6199 4.80322H5.34326V20.516H22.6199V4.80322Z" fill="white"/>
<path fill-rule="evenodd" clip-rule="evenodd" d="M27.972 13.9999C27.972 21.7217 21.7124 27.9813 13.9907 27.9813C6.26895 27.9813 0.00927734 21.7217 0.00927734 13.9999C0.00927734 6.27823 6.26895 0.0185547 13.9907 0.0185547C21.7124 0.0185547 27.972 6.27823 27.972 13.9999ZM10.0287 19.5638H7.31534C6.74518 19.5638 6.46354 19.5638 6.29181 19.454C6.10633 19.3337 5.99299 19.1345 5.97925 18.9146C5.96894 18.7121 6.10978 18.4647 6.39142 17.9701L13.0911 6.16096C13.3762 5.65949 13.5204 5.40876 13.7025 5.31603C13.8983 5.21643 14.1318 5.21643 14.3276 5.31603C14.5096 5.40876 14.6539 5.65949 14.939 6.16096L16.3163 8.56524L16.3233 8.57751C16.6312 9.11548 16.7874 9.3883 16.8555 9.67463C16.9311 9.98719 16.9311 10.3169 16.8555 10.6295C16.7868 10.918 16.6323 11.1928 16.3197 11.7389L12.8005 17.9598L12.7914 17.9757C12.4815 18.5182 12.3244 18.7931 12.1067 19.0005C11.8697 19.2272 11.5847 19.392 11.2721 19.4849C10.987 19.5638 10.6676 19.5638 10.0287 19.5638ZM16.881 19.5638H20.7689C21.3425 19.5638 21.6311 19.5638 21.8029 19.4506C21.9883 19.3304 22.1051 19.1276 22.1155 18.9079C22.1254 18.7119 21.9876 18.4742 21.7177 18.0083C21.7083 17.9924 21.699 17.9763 21.6895 17.9599L19.742 14.6283L19.7199 14.5907C19.4462 14.128 19.3081 13.8943 19.1306 13.8039C18.935 13.7043 18.7047 13.7043 18.509 13.8039C18.3304 13.8967 18.1861 14.1405 17.9011 14.6317L15.9605 17.9633L15.9538 17.9748C15.6697 18.4652 15.5278 18.7102 15.538 18.9113C15.5517 19.1312 15.6651 19.3337 15.8505 19.454C16.0189 19.5638 16.3074 19.5638 16.881 19.5638Z" fill="#E84142"/>
</g>
<defs>
<clipPath id="clip0_165_12055">
<rect width="27.9814" height="28" fill="white"/>
</clipPath>
</defs>
</svg>
