<svg width="20" height="20" viewBox="0 0 20 20" fill="none" xmlns="http://www.w3.org/2000/svg">
<circle cx="10" cy="10" r="10" fill="#303030"/>
<g clip-path="url(#clip0_279_11745)">
<path d="M13.2733 4.07837C12.6187 4.07786 11.9907 4.33709 11.5271 4.79914C11.0635 5.26119 10.8022 5.88832 10.8005 6.54286V9.27537C10.5459 9.29256 10.2855 9.30339 10.0155 9.30339C9.74559 9.30339 9.48647 9.31421 9.23053 9.32949V6.54286C9.22012 5.89399 8.95505 5.27523 8.49251 4.82005C8.02997 4.36488 7.40703 4.10977 6.75809 4.10977C6.10914 4.10977 5.48621 4.36488 5.02367 4.82005C4.56113 5.27523 4.29606 5.89399 4.28564 6.54286V13.0737C4.29606 13.7225 4.56113 14.3413 5.02367 14.7965C5.48621 15.2516 6.10914 15.5067 6.75809 15.5067C7.40703 15.5067 8.02997 15.2516 8.49251 14.7965C8.95505 14.3413 9.22012 13.7225 9.23053 13.0737V10.3411C9.4852 10.3239 9.74559 10.3131 10.0155 10.3131C10.2855 10.3131 10.5446 10.3023 10.8005 10.287V13.0737C10.8109 13.7225 11.076 14.3413 11.5385 14.7965C12.0011 15.2516 12.624 15.5067 13.273 15.5067C13.9219 15.5067 14.5448 15.2516 15.0074 14.7965C15.4699 14.3413 15.735 13.7225 15.7454 13.0737V6.54286C15.7437 5.88843 15.4825 5.2614 15.019 4.79936C14.5555 4.33733 13.9277 4.07803 13.2733 4.07837ZM6.75777 5.0881C7.14406 5.08793 7.51464 5.241 7.7882 5.51373C8.06176 5.78646 8.21597 6.15657 8.21698 6.54286V9.43645C7.4936 9.54127 6.7872 9.74099 6.11602 10.0304C5.82522 10.1581 5.55147 10.3215 5.30111 10.5168V6.54286C5.30212 6.15701 5.45597 5.78729 5.72899 5.51463C6.002 5.24198 6.37193 5.08861 6.75777 5.0881ZM8.21698 13.0737C8.21698 13.4607 8.06324 13.8318 7.78959 14.1055C7.51593 14.3791 7.14478 14.5329 6.75777 14.5329C6.37076 14.5329 5.99961 14.3791 5.72595 14.1055C5.4523 13.8318 5.29856 13.4607 5.29856 13.0737V12.4185C5.29856 11.8398 5.75695 11.2917 6.52539 10.9504C7.06685 10.7168 7.63497 10.5507 8.21698 10.4557V13.0737ZM13.2733 14.5284C12.887 14.5286 12.5164 14.3755 12.2429 14.1028C11.9693 13.83 11.8151 13.4599 11.8141 13.0737V10.1801C12.5375 10.0752 13.2439 9.87552 13.915 9.58606C14.2058 9.45843 14.4796 9.29504 14.7299 9.09966V13.0737C14.7289 13.4595 14.5751 13.8292 14.3021 14.1019C14.0291 14.3745 13.6591 14.5279 13.2733 14.5284ZM13.5057 8.66228C12.9642 8.89588 12.3961 9.06202 11.8141 9.15696V6.54286C11.8141 6.15585 11.9678 5.78469 12.2415 5.51104C12.5151 5.23738 12.8863 5.08365 13.2733 5.08365C13.6603 5.08365 14.0314 5.23738 14.3051 5.51104C14.5788 5.78469 14.7325 6.15585 14.7325 6.54286V7.19797C14.7325 7.77414 14.2741 8.3223 13.5057 8.66228Z" fill="#F5F5F5"/>
</g>
<defs>
<clipPath id="clip0_279_11745">
<rect width="11.4598" height="11.4286" fill="white" transform="translate(4.28564 4.07837)"/>
</clipPath>
</defs>
</svg>
