<svg width="12" height="20" viewBox="0 0 20 20" fill="none" xmlns="http://www.w3.org/2000/svg">
<g clip-path="url(#clip0_1283_56056)">
<path d="M5.97837 0.224366C5.2441 0.228028 4.51778 0.377066 3.84082 0.662994C3.16387 0.948922 2.54957 1.36617 2.03301 1.89082C1.51644 2.41548 1.10773 3.03731 0.830212 3.72081C0.552695 4.40428 0.411813 5.13605 0.415602 5.87428V7.74046H4.93539V5.03672C4.93532 4.90974 4.96015 4.78402 5.00845 4.66667C5.05674 4.54935 5.12759 4.44275 5.21688 4.35296C5.30617 4.26318 5.41218 4.19198 5.52887 4.14337C5.64555 4.09479 5.7706 4.06982 5.89687 4.06985H6.05982C6.18613 4.06982 6.31121 4.09479 6.4279 4.14337C6.54459 4.19198 6.6506 4.26318 6.73992 4.35296C6.82921 4.44275 6.90006 4.54935 6.94839 4.66667C6.99672 4.78402 7.02156 4.90974 7.02152 5.03672V12.2849C7.61511 12.2849 8.20283 12.1673 8.7512 11.9389C9.29958 11.7106 9.79787 11.3759 10.2176 10.9539C10.6373 10.5319 10.9702 10.0309 11.1973 9.47956C11.4245 8.92823 11.5413 8.33724 11.5413 7.74046V5.87428C11.5445 4.3785 10.9587 2.94227 9.91189 1.87946C9.39825 1.355 8.78591 0.938556 8.11059 0.654402C7.43526 0.370251 6.71045 0.224058 5.97837 0.224366Z" fill="#969696"/>
<path d="M6.06007 15.9548H5.89712C5.77085 15.9548 5.6458 15.9298 5.52911 15.8813C5.41246 15.8327 5.30645 15.7614 5.21716 15.6717C5.12788 15.5819 5.05706 15.4754 5.00873 15.3581C4.96043 15.2407 4.93556 15.115 4.9356 14.9881V7.73999C4.34205 7.73996 3.75428 7.85745 3.20589 8.0858C2.6575 8.31415 2.15923 8.64886 1.73952 9.07086C1.31981 9.49286 0.98688 9.99385 0.759759 10.5452C0.532636 11.0966 0.415768 11.6875 0.415819 12.2843V14.1246C0.408289 14.8639 0.546616 15.5973 0.822799 16.2826C1.09898 16.9678 1.50754 17.5912 2.02485 18.1166C2.54215 18.6421 3.15794 19.0593 3.8366 19.344C4.51525 19.6286 5.24333 19.7752 5.97868 19.7752C6.71404 19.7752 7.44208 19.6286 8.12074 19.344C8.7994 19.0593 9.41522 18.6421 9.93251 18.1166C10.4498 17.5912 10.8584 16.9678 11.1345 16.2826C11.4107 15.5973 11.5491 14.8639 11.5415 14.1246V12.2843H7.02177V14.9881C7.02177 15.115 6.99687 15.2407 6.94853 15.3581C6.9002 15.4754 6.82935 15.582 6.74006 15.6717C6.65077 15.7615 6.54473 15.8327 6.42804 15.8813C6.31139 15.9298 6.18635 15.9548 6.06007 15.9548Z" fill="#969696"/>
</g>
<defs>
<clipPath id="clip0_1283_56056">
<rect width="11.1699" height="19.6" fill="white" transform="translate(0.399902 0.199951)"/>
</clipPath>
</defs>
</svg>
