<svg width="32" height="32" viewBox="0 0 32 32" fill="none" xmlns="http://www.w3.org/2000/svg">
<circle cx="16" cy="16" r="16" fill="#1D1336"/>
<path d="M9.15271 15.5989C9.15271 15.4064 9.30958 15.2502 9.5031 15.2502H22.4674C22.6609 15.2502 22.8178 15.4064 22.8178 15.5989C22.8178 15.7915 22.6609 15.9476 22.4674 15.9476H9.5031C9.30958 15.9476 9.15271 15.7915 9.15271 15.5989Z" fill="#E1147B"/>
<path d="M6.52481 17.1332C6.52481 16.9406 6.68168 16.7845 6.8752 16.7845H16.3356C16.5292 16.7845 16.686 16.9406 16.686 17.1332C16.686 17.3258 16.5292 17.4819 16.3356 17.4819H6.8752C6.68168 17.4819 6.52481 17.3258 6.52481 17.1332Z" fill="#E1147B"/>
<path d="M15.3195 21.3873C15.126 21.3873 14.9691 21.5434 14.9691 21.736C14.9691 21.9286 15.126 22.0847 15.3195 22.0847H21.171C21.3645 22.0847 21.5214 21.9286 21.5214 21.736C21.5214 21.5434 21.3645 21.3873 21.171 21.3873H15.3195Z" fill="#E1147B"/>
<path d="M11.3952 23.2703C11.3952 23.0777 11.5521 22.9216 11.7456 22.9216H17.562C17.7555 22.9216 17.9124 23.0777 17.9124 23.2703C17.9124 23.4629 17.7555 23.619 17.562 23.619H11.7456C11.5521 23.619 11.3952 23.4629 11.3952 23.2703Z" fill="#E1147B"/>
<path d="M9.5031 18.3188C9.30958 18.3188 9.15271 18.4749 9.15271 18.6675C9.15271 18.8601 9.30958 19.0162 9.5031 19.0162H20.9257C21.1192 19.0162 21.2761 18.8601 21.2761 18.6675C21.2761 18.4749 21.1192 18.3188 20.9257 18.3188H9.5031Z" fill="#E1147B"/>
<path d="M7.19055 20.2018C7.19055 20.0092 7.34742 19.8531 7.54093 19.8531H12.096C12.2895 19.8531 12.4463 20.0092 12.4463 20.2018C12.4463 20.3943 12.2895 20.5505 12.096 20.5505H7.54093C7.34742 20.5505 7.19055 20.3943 7.19055 20.2018Z" fill="#E1147B"/>
<path d="M13.4274 19.8531C13.2339 19.8531 13.077 20.0092 13.077 20.2018C13.077 20.3943 13.2339 20.5505 13.4274 20.5505H22.8879C23.0814 20.5505 23.2383 20.3943 23.2383 20.2018C23.2383 20.0092 23.0814 19.8531 22.8879 19.8531H13.4274Z" fill="#E1147B"/>
<path d="M8.66217 15.5989C8.66217 15.7915 8.5053 15.9476 8.31178 15.9476C8.11827 15.9476 7.9614 15.7915 7.9614 15.5989C7.9614 15.4064 8.11827 15.2502 8.31178 15.2502C8.5053 15.2502 8.66217 15.4064 8.66217 15.5989Z" fill="#E1147B"/>
<path d="M5.68388 17.4819C5.8774 17.4819 6.03427 17.3258 6.03427 17.1332C6.03427 16.9406 5.8774 16.7845 5.68388 16.7845C5.49037 16.7845 5.3335 16.9406 5.3335 17.1332C5.3335 17.3258 5.49037 17.4819 5.68388 17.4819Z" fill="#E1147B"/>
<path d="M14.4786 21.736C14.4786 21.9286 14.3217 22.0847 14.1282 22.0847C13.9347 22.0847 13.7778 21.9286 13.7778 21.736C13.7778 21.5434 13.9347 21.3873 14.1282 21.3873C14.3217 21.3873 14.4786 21.5434 14.4786 21.736Z" fill="#E1147B"/>
<path d="M10.5543 23.619C10.7478 23.619 10.9046 23.4629 10.9046 23.2703C10.9046 23.0777 10.7478 22.9216 10.5543 22.9216C10.3607 22.9216 10.2039 23.0777 10.2039 23.2703C10.2039 23.4629 10.3607 23.619 10.5543 23.619Z" fill="#E1147B"/>
<path d="M8.66217 18.6675C8.66217 18.8601 8.5053 19.0162 8.31178 19.0162C8.11827 19.0162 7.9614 18.8601 7.9614 18.6675C7.9614 18.4749 8.11827 18.3188 8.31178 18.3188C8.5053 18.3188 8.66217 18.4749 8.66217 18.6675Z" fill="#E1147B"/>
<path d="M6.34962 20.5505C6.54313 20.5505 6.7 20.3943 6.7 20.2018C6.7 20.0092 6.54313 19.8531 6.34962 19.8531C6.1561 19.8531 5.99923 20.0092 5.99923 20.2018C5.99923 20.3943 6.1561 20.5505 6.34962 20.5505Z" fill="#E1147B"/>
<path d="M21.165 11.825C21.4468 12.5019 21.5918 13.2274 21.5918 13.96C21.5918 14.1141 21.4663 14.239 21.3115 14.239H10.6597C10.5049 14.239 10.3794 14.1141 10.3794 13.96C10.3794 13.2274 10.5244 12.5019 10.8061 11.825C11.0879 11.1481 11.5008 10.533 12.0214 10.015C12.542 9.49689 13.16 9.08593 13.8402 8.80555C14.5204 8.52517 15.2494 8.38086 15.9856 8.38086C16.7218 8.38086 17.4508 8.52517 18.131 8.80555C18.8111 9.08593 19.4292 9.49689 19.9498 10.015C20.4703 10.533 20.8833 11.1481 21.165 11.825Z" fill="#53CBC7"/>
</svg>
