<svg width="20" height="20" viewBox="0 0 20 20" fill="none" xmlns="http://www.w3.org/2000/svg">
<circle cx="10" cy="10" r="10" fill="#303030"/>
<path d="M5.72051 9.74919C5.72051 9.62882 5.81855 9.53125 5.9395 9.53125H14.0422C14.1631 9.53125 14.2612 9.62882 14.2612 9.74919C14.2612 9.86955 14.1631 9.96712 14.0422 9.96712H5.9395C5.81855 9.96712 5.72051 9.86955 5.72051 9.74919Z" fill="#F5F5F5"/>
<path d="M4.07807 10.7081C4.07807 10.5877 4.17611 10.4902 4.29706 10.4902H10.2098C10.3308 10.4902 10.4288 10.5877 10.4288 10.7081C10.4288 10.8285 10.3308 10.926 10.2098 10.926H4.29706C4.17611 10.926 4.07807 10.8285 4.07807 10.7081Z" fill="#F5F5F5"/>
<path d="M9.57476 13.3669C9.45381 13.3669 9.35577 13.4645 9.35577 13.5849C9.35577 13.7052 9.45381 13.8028 9.57476 13.8028H13.2319C13.3529 13.8028 13.4509 13.7052 13.4509 13.5849C13.4509 13.4645 13.3529 13.3669 13.2319 13.3669H9.57476Z" fill="#F5F5F5"/>
<path d="M7.12205 14.5438C7.12205 14.4234 7.2201 14.3258 7.34104 14.3258H10.9763C11.0973 14.3258 11.1953 14.4234 11.1953 14.5438C11.1953 14.6641 11.0973 14.7617 10.9763 14.7617H7.34104C7.2201 14.7617 7.12205 14.6641 7.12205 14.5438Z" fill="#F5F5F5"/>
<path d="M5.9395 11.4491C5.81855 11.4491 5.72051 11.5467 5.72051 11.667C5.72051 11.7874 5.81855 11.885 5.9395 11.885H13.0786C13.1996 11.885 13.2976 11.7874 13.2976 11.667C13.2976 11.5467 13.1996 11.4491 13.0786 11.4491H5.9395Z" fill="#F5F5F5"/>
<path d="M4.49415 12.6259C4.49415 12.5056 4.5922 12.408 4.71314 12.408H7.56004C7.68098 12.408 7.77903 12.5056 7.77903 12.6259C7.77903 12.7463 7.68098 12.8439 7.56004 12.8439H4.71314C4.5922 12.8439 4.49415 12.7463 4.49415 12.6259Z" fill="#F5F5F5"/>
<path d="M8.3922 12.408C8.27126 12.408 8.17321 12.5056 8.17321 12.6259C8.17321 12.7463 8.27126 12.8439 8.3922 12.8439H14.305C14.4259 12.8439 14.524 12.7463 14.524 12.6259C14.524 12.5056 14.4259 12.408 14.305 12.408H8.3922Z" fill="#F5F5F5"/>
<path d="M5.41392 9.74919C5.41392 9.86955 5.31587 9.96712 5.19493 9.96712C5.07398 9.96712 4.97593 9.86955 4.97593 9.74919C4.97593 9.62882 5.07398 9.53125 5.19493 9.53125C5.31587 9.53125 5.41392 9.62882 5.41392 9.74919Z" fill="#F5F5F5"/>
<path d="M3.55249 10.926C3.67344 10.926 3.77148 10.8285 3.77148 10.7081C3.77148 10.5877 3.67344 10.4902 3.55249 10.4902C3.43154 10.4902 3.3335 10.5877 3.3335 10.7081C3.3335 10.8285 3.43154 10.926 3.55249 10.926Z" fill="#F5F5F5"/>
<path d="M9.04918 13.5849C9.04918 13.7052 8.95114 13.8028 8.83019 13.8028C8.70924 13.8028 8.6112 13.7052 8.6112 13.5849C8.6112 13.4645 8.70924 13.3669 8.83019 13.3669C8.95114 13.3669 9.04918 13.4645 9.04918 13.5849Z" fill="#F5F5F5"/>
<path d="M6.59647 14.7617C6.71742 14.7617 6.81546 14.6641 6.81546 14.5438C6.81546 14.4234 6.71742 14.3258 6.59647 14.3258C6.47552 14.3258 6.37748 14.4234 6.37748 14.5438C6.37748 14.6641 6.47552 14.7617 6.59647 14.7617Z" fill="#F5F5F5"/>
<path d="M5.41392 11.667C5.41392 11.7874 5.31587 11.885 5.19493 11.885C5.07398 11.885 4.97593 11.7874 4.97593 11.667C4.97593 11.5467 5.07398 11.4491 5.19493 11.4491C5.31587 11.4491 5.41392 11.5467 5.41392 11.667Z" fill="#F5F5F5"/>
<path d="M3.96857 12.8439C4.08952 12.8439 4.18756 12.7463 4.18756 12.6259C4.18756 12.5056 4.08952 12.408 3.96857 12.408C3.84762 12.408 3.74958 12.5056 3.74958 12.6259C3.74958 12.7463 3.84762 12.8439 3.96857 12.8439Z" fill="#F5F5F5"/>
<path d="M13.2283 7.39061C13.4044 7.81367 13.495 8.2671 13.495 8.72502C13.495 8.82131 13.4166 8.89936 13.3198 8.89936H6.6625C6.56574 8.89936 6.4873 8.82131 6.4873 8.72502C6.4873 8.2671 6.57793 7.81367 6.75402 7.39061C6.93011 6.96755 7.1882 6.58314 7.51356 6.25935C7.83893 5.93555 8.22519 5.6787 8.6503 5.50347C9.07541 5.32823 9.53104 5.23804 9.99117 5.23804C10.4513 5.23804 10.9069 5.32823 11.332 5.50347C11.7572 5.6787 12.1434 5.93555 12.4688 6.25935C12.7941 6.58314 13.0522 6.96755 13.2283 7.39061Z" fill="#F5F5F5"/>
</svg>
