<svg width="28" height="28" viewBox="0 0 28 28" fill="none" xmlns="http://www.w3.org/2000/svg">
<g clip-path="url(#clip0_165_12065)">
<path d="M14 28C21.732 28 28 21.732 28 14C28 6.26801 21.732 0 14 0C6.26801 0 0 6.26801 0 14C0 21.732 6.26801 28 14 28Z" fill="#FF0420"/>
<path d="M10.1536 17.9201C9.30923 17.9201 8.6174 17.7168 8.07807 17.3103C7.5459 16.8965 7.27979 16.3085 7.27979 15.5463C7.27979 15.3866 7.29754 15.1906 7.33299 14.9583C7.42527 14.4356 7.55654 13.8077 7.72683 13.0745C8.20933 11.0782 9.45471 10.0801 11.4629 10.0801C12.0093 10.0801 12.4989 10.1744 12.9317 10.3632C13.3646 10.5447 13.7052 10.8205 13.9535 11.1907C14.2019 11.5537 14.3261 11.9893 14.3261 12.4974C14.3261 12.6499 14.3083 12.8422 14.2728 13.0745C14.1664 13.7206 14.0387 14.3485 13.8897 14.9583C13.6413 15.9528 13.212 16.6969 12.6017 17.1905C11.9915 17.6769 11.1755 17.9201 10.1536 17.9201ZM10.3027 16.3521C10.7 16.3521 11.0371 16.2323 11.3139 15.9927C11.5977 15.7532 11.7999 15.3866 11.9206 14.8929C12.0837 14.2106 12.208 13.6154 12.2931 13.1072C12.3215 12.9547 12.3356 12.7987 12.3356 12.6389C12.3356 11.9784 11.9986 11.6481 11.3245 11.6481C10.9271 11.6481 10.5865 11.7679 10.3027 12.0074C10.0259 12.2469 9.82722 12.6136 9.7066 13.1072C9.57886 13.5936 9.45113 14.1888 9.32345 14.8929C9.29506 15.0381 9.28083 15.1906 9.28083 15.3503C9.28083 16.0181 9.62143 16.3521 10.3027 16.3521Z" fill="white"/>
<path d="M14.8152 17.8112C14.7371 17.8112 14.6768 17.7858 14.6342 17.735C14.5987 17.6769 14.5881 17.6116 14.6023 17.539L16.0711 10.4612C16.0853 10.3814 16.1243 10.316 16.1882 10.2652C16.2521 10.2144 16.3195 10.189 16.3905 10.189H19.2218C20.0094 10.189 20.6409 10.356 21.1163 10.6899C21.5989 11.0238 21.8401 11.5065 21.8401 12.1381C21.8401 12.3196 21.8189 12.5083 21.7763 12.7043C21.5989 13.5392 21.2406 14.1562 20.7012 14.5555C20.1691 14.9547 19.4381 15.1543 18.5086 15.1543H17.0716L16.582 17.539C16.5679 17.6188 16.5288 17.6842 16.4649 17.735C16.4011 17.7858 16.3337 17.8112 16.2627 17.8112H14.8152ZM18.5831 13.6517C18.8811 13.6517 19.1401 13.5682 19.3601 13.4012C19.5872 13.2342 19.7362 12.9947 19.8072 12.6825C19.8285 12.5592 19.8391 12.4502 19.8391 12.3559C19.8391 12.1454 19.7788 11.9857 19.6582 11.8767C19.5375 11.7606 19.3317 11.7025 19.0408 11.7025H17.7635L17.359 13.6517H18.5831Z" fill="white"/>
</g>
<defs>
<clipPath id="clip0_165_12065">
<rect width="28" height="28" fill="white"/>
</clipPath>
</defs>
</svg>
