<svg width="28" height="28" viewBox="0 0 28 28" fill="none" xmlns="http://www.w3.org/2000/svg">
<circle cx="14" cy="14" r="14" fill="#8247E5"/>
<g clip-path="url(#clip0_165_12035)">
<path d="M18.363 11.1325C18.0566 10.9574 17.6625 10.9574 17.3123 11.1325L14.8605 12.5773L13.1969 13.4967L10.7889 14.9415C10.4824 15.1166 10.0884 15.1166 9.73815 14.9415L7.85556 13.8031C7.54909 13.628 7.33019 13.2778 7.33019 12.8837V10.6947C7.33019 10.3444 7.50531 9.99419 7.85556 9.77529L9.73815 8.68076C10.0446 8.50563 10.4386 8.50563 10.7889 8.68076L12.6715 9.81907C12.9779 9.99419 13.1969 10.3444 13.1969 10.7385V12.1832L14.8605 11.2201V9.7315C14.8605 9.38126 14.6854 9.03101 14.3352 8.8121L10.8327 6.75439C10.5262 6.57927 10.1322 6.57927 9.78193 6.75439L6.19188 8.85588C5.84163 9.03101 5.6665 9.38126 5.6665 9.7315V13.8469C5.6665 14.1972 5.84163 14.5474 6.19188 14.7663L9.73815 16.824C10.0446 16.9992 10.4386 16.9992 10.7889 16.824L13.1969 15.423L14.8605 14.4599L17.2685 13.0589C17.575 12.8837 17.969 12.8837 18.3192 13.0589L20.2018 14.1534C20.5083 14.3285 20.7272 14.6788 20.7272 15.0728V17.2619C20.7272 17.6121 20.5521 17.9624 20.2018 18.1813L18.363 19.2758C18.0566 19.4509 17.6625 19.4509 17.3123 19.2758L15.4297 18.1813C15.1232 18.0061 14.9043 17.6559 14.9043 17.2619V15.8609L13.2406 16.824V18.2688C13.2406 18.6191 13.4158 18.9693 13.766 19.1882L17.3123 21.2459C17.6187 21.4211 18.0128 21.4211 18.363 21.2459L21.9093 19.1882C22.2158 19.0131 22.4347 18.6628 22.4347 18.2688V14.1096C22.4347 13.7594 22.2595 13.4091 21.9093 13.1902L18.363 11.1325Z" fill="#F5F5F5"/>
</g>
<defs>
<clipPath id="clip0_165_12035">
<rect width="16.8119" height="14.6667" fill="white" transform="translate(5.6665 6.66675)"/>
</clipPath>
</defs>
</svg>
