<svg width="16" height="16" viewBox="0 0 16 16" fill="none" xmlns="http://www.w3.org/2000/svg">
<g clip-path="url(#clip0_1_3060)">
<path fill-rule="evenodd" clip-rule="evenodd" d="M8.00008 0.666748C3.95008 0.666748 0.666748 3.95008 0.666748 8.00008C0.666748 12.0501 3.95008 15.3334 8.00008 15.3334C12.0501 15.3334 15.3334 12.0501 15.3334 8.00008C15.3334 3.95008 12.0501 0.666748 8.00008 0.666748ZM11.1787 6.76008C11.2373 6.69318 11.2818 6.61524 11.3098 6.53086C11.3378 6.44648 11.3486 6.35736 11.3416 6.26874C11.3346 6.18012 11.31 6.09379 11.2691 6.01483C11.2283 5.93588 11.1721 5.86588 11.1038 5.80898C11.0355 5.75207 10.9565 5.70939 10.8715 5.68346C10.7865 5.65752 10.6971 5.64886 10.6087 5.65797C10.5202 5.66708 10.4345 5.69378 10.3566 5.7365C10.2786 5.77923 10.21 5.83711 10.1547 5.90675L7.28808 9.34608L5.80475 7.86208C5.67901 7.74064 5.51061 7.67345 5.33581 7.67497C5.16102 7.67648 4.99381 7.7466 4.8702 7.8702C4.7466 7.99381 4.67648 8.16102 4.67497 8.33581C4.67345 8.51061 4.74064 8.67901 4.86208 8.80475L6.86208 10.8047C6.92759 10.8702 7.00601 10.9213 7.09236 10.9548C7.17871 10.9883 7.27108 11.0034 7.36359 10.9992C7.45611 10.995 7.54673 10.9715 7.62969 10.9304C7.71265 10.8892 7.78612 10.8312 7.84541 10.7601L11.1787 6.76008Z" fill="url(#paint0_linear_1_3060)"/>
</g>
<defs>
<linearGradient id="paint0_linear_1_3060" x1="3.41675" y1="0.666747" x2="15.9448" y2="3.6924" gradientUnits="userSpaceOnUse">
<stop stop-color="#00F0EC"/>
<stop offset="1" stop-color="#16FFC5"/>
</linearGradient>
<clipPath id="clip0_1_3060">
<rect width="16" height="16" fill="white"/>
</clipPath>
</defs>
</svg>
