<svg width="20" height="20" viewBox="0 0 20 20" fill="none" xmlns="http://www.w3.org/2000/svg">
<circle cx="10" cy="10" r="10" fill="url(#paint0_linear_282_11729)"/>
<path d="M10 14C12.2091 14 14 12.2091 14 10C14 7.79086 12.2091 6 10 6C7.79086 6 6 7.79086 6 10C6 12.2091 7.79086 14 10 14Z" stroke="#161616" stroke-width="2" stroke-miterlimit="10" stroke-linecap="round"/>
<path d="M3.89295 14.5232C2.91766 13.2065 2.39399 11.6099 2.39995 9.97147C2.40592 8.33302 2.9412 6.74033 3.92605 5.43071M14.5323 16.1011C13.2157 17.0789 11.6181 17.6046 9.97809 17.5999C8.33804 17.5951 6.74352 17.0601 5.43265 16.0748M16.0904 5.45275C17.0704 6.76548 17.5999 8.3597 17.5999 9.99778C17.5999 11.6359 17.0704 13.2301 16.0904 14.5428M5.46208 3.90302C6.77844 2.92348 8.37655 2.39617 10.0175 2.39992C11.6585 2.40368 13.2542 2.9383 14.566 3.92386" stroke="#161616" stroke-miterlimit="10"/>
<defs>
<linearGradient id="paint0_linear_282_11729" x1="3.75" y1="-7.7649e-07" x2="20.8337" y2="4.12589" gradientUnits="userSpaceOnUse">
<stop stop-color="#00F0EC"/>
<stop offset="1" stop-color="#16FFC5"/>
</linearGradient>
</defs>
</svg>
