<svg width="20" height="20" viewBox="0 0 20 20" fill="none" xmlns="http://www.w3.org/2000/svg">
<g clip-path="url(#clip0_282_11725)">
<path d="M10 0C15.5226 0 20 4.4774 20 10C20 15.5226 15.5224 20 10 20C4.4776 20 0 15.5238 0 10C0 4.4762 4.4768 0 10 0Z" fill="#53AE94"/>
<path d="M11.2344 8.66753V7.17993H14.6362V4.91333H5.37295V7.17993H8.77515V8.66633C6.01015 8.79333 3.93115 9.34093 3.93115 9.99693C3.93115 10.6529 6.01115 11.2005 8.77515 11.3283V16.0933H11.2352V11.3279C13.9952 11.2005 16.07 10.6533 16.07 9.99793C16.07 9.34253 13.9952 8.79533 11.2352 8.66793M11.2352 10.9243V10.9231C11.1658 10.9275 10.8092 10.9489 10.0152 10.9489C9.38035 10.9489 8.93375 10.9309 8.77635 10.9227V10.9247C6.33355 10.8165 4.51015 10.3911 4.51015 9.88213C4.51015 9.37313 6.33375 8.94833 8.77635 8.83993V10.5009C8.93635 10.5119 9.39395 10.5389 10.0256 10.5389C10.7842 10.5389 11.1656 10.5073 11.2356 10.5009V8.83993C13.6736 8.94853 15.4928 9.37433 15.4928 9.88153C15.4928 10.3887 13.6728 10.8147 11.2356 10.9233" fill="white"/>
</g>
<defs>
<clipPath id="clip0_282_11725">
<rect width="20" height="20" fill="white"/>
</clipPath>
</defs>
</svg>
