<svg width="241" height="240" viewBox="0 0 241 240" fill="none" xmlns="http://www.w3.org/2000/svg">
<path d="M157.857 158.4C157.857 158.4 186.457 130 196.157 120C226.857 90 211.557 28.2 211.557 28.2C211.557 28.2 150.057 12.9 120.057 43.6C96.6574 66.4 81.4574 82.2 81.4574 82.2C81.4574 82.2 43.0574 74.2 20.0574 97.2L142.557 220C165.557 196.7 157.857 158.4 157.857 158.4ZM142.857 68.4C144.715 66.5405 146.921 65.0653 149.349 64.0588C151.777 63.0523 154.379 62.5342 157.007 62.5342C159.636 62.5342 162.238 63.0523 164.666 64.0588C167.094 65.0653 169.3 66.5405 171.157 68.4C173.952 71.1979 175.855 74.7616 176.625 78.6406C177.395 82.5196 176.997 86.5398 175.483 90.1931C173.968 93.8463 171.405 96.9685 168.116 99.1652C164.828 101.362 160.962 102.534 157.007 102.534C153.053 102.534 149.187 101.362 145.898 99.1652C142.61 96.9685 140.046 93.8463 138.532 90.1931C137.018 86.5398 136.62 82.5196 137.39 78.6406C138.16 74.7616 140.063 71.1979 142.857 68.4ZM30.0574 210C48.5681 209.472 66.2889 202.384 80.0574 190L50.0574 160C30.0574 170 30.0574 210 30.0574 210Z" fill="url(#paint0_linear_11_3731)"/>
<defs>
<linearGradient id="paint0_linear_11_3731" x1="214.926" y1="23.9996" x2="20.5261" y2="220.8" gradientUnits="userSpaceOnUse">
<stop stop-color="#FFA216"/>
<stop offset="1" stop-color="#FF1616"/>
</linearGradient>
</defs>
</svg>
