<svg width="12" height="12" viewBox="0 0 12 12" xmlns="http://www.w3.org/2000/svg">
<path d="M11.7929 5.51351H11.6738C10.2854 5.51351 8.89696 5.51242 7.50874 5.51503C7.35203 5.51525 7.23009 5.46156 7.12967 5.34332C7.01274 5.20574 6.89189 5.0712 6.77105 4.93688C6.60086 4.74778 6.39698 4.74495 6.21832 4.9297C6.07269 5.08033 5.92816 5.23204 5.7847 5.38505C5.70363 5.47156 5.60908 5.5146 5.4878 5.5146C3.76681 5.51286 2.04582 5.51351 0.324618 5.51329C0.292885 5.51329 0.261152 5.51047 0.207031 5.50807C0.244198 5.26942 0.271367 5.03751 0.318533 4.80973C0.362438 4.59824 0.430469 4.39219 0.481981 4.18223C0.503281 4.09573 0.547621 4.07377 0.634344 4.07399C2.43141 4.07682 4.22825 4.07443 6.02531 4.0779C6.282 4.07834 6.48849 3.99922 6.64889 3.79469C6.73779 3.68124 6.83734 3.57539 6.93667 3.47041C7.09077 3.30761 7.29704 3.31261 7.44679 3.47997C7.56981 3.61712 7.69522 3.75253 7.81281 3.89446C7.92366 4.02813 8.06298 4.07747 8.23252 4.07725C9.27732 4.07508 10.3224 4.07747 11.3672 4.07399C11.4628 4.07356 11.5017 4.10029 11.531 4.19353C11.6647 4.61846 11.756 5.05033 11.7925 5.51373L11.7929 5.51351Z"/>
<path d="M0.773038 8.52888C0.548514 8.06679 0.392673 7.58884 0.296387 7.07632C0.347464 7.07632 0.389631 7.07632 0.431797 7.07632C1.61788 7.07632 2.80397 7.07502 3.99006 7.07741C4.2261 7.07784 4.41802 6.99894 4.56886 6.81507C4.66515 6.69791 4.76687 6.58511 4.87011 6.47382C5.02204 6.31016 5.23222 6.31059 5.38176 6.47448C5.50848 6.61315 5.63497 6.75247 5.75582 6.89635C5.86428 7.0259 5.99969 7.07719 6.16553 7.07697C7.96998 7.07545 9.77443 7.0761 11.5787 7.0761C11.6215 7.0761 11.6643 7.0761 11.7143 7.0761C11.6243 7.56754 11.4719 8.02723 11.2683 8.4715C11.2368 8.5404 11.1868 8.5291 11.1346 8.5291C10.1076 8.5291 9.08065 8.5291 8.05366 8.5291C7.18578 8.5291 6.31789 8.52693 5.45022 8.53105C5.27374 8.53192 5.1368 8.4752 5.02487 8.33848C4.91271 8.20155 4.7923 8.07157 4.67385 7.93986C4.51974 7.76837 4.31435 7.7612 4.15285 7.92421C3.99527 8.08331 3.84769 8.25328 3.68251 8.40412C3.61578 8.4652 3.51471 8.52236 3.42886 8.52323C2.54684 8.53192 1.66461 8.52845 0.772604 8.52845L0.773038 8.52888Z"/>
<path d="M10.6319 2.51725C10.3476 2.51725 10.0631 2.51725 9.77877 2.51725C9.70292 2.51725 9.62684 2.5166 9.55099 2.51725C9.41667 2.51877 9.30495 2.46878 9.21561 2.36924C9.08303 2.22122 8.95305 2.07103 8.81917 1.9241C8.66398 1.7537 8.45706 1.74978 8.29731 1.91367C8.15364 2.06103 8.01062 2.20948 7.87173 2.36141C7.77284 2.46965 7.65764 2.51899 7.50854 2.51877C5.50586 2.51616 3.50297 2.51703 1.50029 2.51703C1.46095 2.51703 1.42161 2.51703 1.34814 2.51703C2.34383 1.24401 3.60577 0.455238 5.18331 0.251362C7.41421 -0.0368455 9.22692 0.755835 10.644 2.47661C10.6399 2.49008 10.6358 2.50356 10.6317 2.51703L10.6319 2.51725Z"/>
<path d="M1.7749 9.97204C2.01486 9.95139 2.18591 9.83163 2.32654 9.65275C2.40674 9.55081 2.49781 9.45713 2.58475 9.3602C2.73321 9.19457 2.94491 9.18936 3.09575 9.35172C3.21855 9.48409 3.33983 9.61819 3.45416 9.75773C3.57088 9.90053 3.71433 9.95813 3.89843 9.95791C5.96587 9.95487 8.03332 9.95596 10.101 9.95596C10.1436 9.95596 10.1864 9.95596 10.229 9.95596C9.24136 11.0179 8.03158 11.6426 6.59424 11.7774C4.70458 11.9545 3.10009 11.3303 1.7749 9.97182V9.97204Z"/>
</svg>
