<svg width="12" height="14" viewBox="0 0 12 14" xmlns="http://www.w3.org/2000/svg">
<path d="M6.04199 8.65319L7.81405 11.4344L9.45099 10.4858L7.12375 6.81763L6.04199 8.65319Z"/>
<path d="M10.9417 9.3702L10.9405 8.61013L8.39756 4.64941L7.4541 6.25024L9.90896 10.2205L10.7966 9.70616C10.8836 9.63547 10.9363 9.5317 10.9418 9.41971L10.9417 9.3702Z"/>
<path d="M0.285685 10.087L1.53911 10.8093L5.71016 4.1201L5.00224 4.1014C4.39909 4.09287 3.74938 4.24967 3.45113 4.73649L1.08251 8.40773L0.285645 9.63209V10.087H0.285685Z"/>
<path d="M8.11747 4.11987L6.25181 4.12665L2.03076 11.0922L3.50612 11.9416L3.90735 11.2611L8.11747 4.11987Z"/>
<path d="M11.728 4.11039C11.7124 3.72021 11.5011 3.363 11.1702 3.15505L6.53198 0.487741C6.20463 0.322891 5.79568 0.322691 5.46781 0.487622C5.42906 0.507157 0.957206 3.10067 0.957206 3.10067C0.895332 3.13033 0.83573 3.16569 0.779638 3.2058C0.484222 3.41754 0.304143 3.74652 0.285645 4.10799V9.63202L1.08251 8.40766L1.07553 4.14535C1.07649 4.12976 1.07844 4.11445 1.08119 4.0993C1.09917 3.999 1.15519 3.90953 1.2395 3.8491C1.26055 3.83403 5.80875 1.20136 5.82323 1.19411C5.93015 1.14041 6.06598 1.13985 6.17302 1.19247L10.7512 3.82593C10.8596 3.8949 10.9275 4.01187 10.9335 4.13973V9.41969C10.9279 9.53167 10.8837 9.63541 10.7966 9.70613L9.90901 10.2205L9.45105 10.4859L7.81411 11.4345L6.15404 12.3966C6.06462 12.4289 5.96009 12.4271 5.87142 12.391L3.90733 11.2613L3.50611 11.9418L5.27118 12.958C5.32955 12.9912 5.38158 13.0206 5.42424 13.0446C5.49034 13.0817 5.53535 13.1064 5.55125 13.1141C5.67671 13.175 5.85719 13.2105 6.01985 13.2105C6.16899 13.2105 6.31439 13.1831 6.45201 13.1292L11.2737 10.3368C11.5505 10.1224 11.7133 9.79906 11.728 9.44875V4.11039Z"/>
</svg>
