<svg width="20" height="20" viewBox="0 0 20 20" xmlns="http://www.w3.org/2000/svg">
<path d="M14.3801 8.43994H11.5601V11.2599H14.3801V8.43994Z"/>
<path d="M8.7398 12.3199C8.7398 12.8999 8.25981 13.3799 7.67981 13.3799C7.09981 13.3799 6.6198 12.8999 6.6198 12.3199C6.6198 11.7399 7.09981 11.2599 7.67981 11.2599H8.7398V8.43994H7.67981C5.53981 8.43994 3.7998 10.1799 3.7998 12.3199C3.7998 14.4599 5.53981 16.1999 7.67981 16.1999C9.81981 16.1999 11.5598 14.4599 11.5598 12.3199V11.2599H8.7398V12.3199Z"/>
<path d="M12.6202 7.01995H15.8002V4.19995H12.6202C10.4802 4.19995 8.74023 5.93995 8.74023 8.07995V8.43995H11.5602V8.07995C11.5602 7.49995 12.0402 7.01995 12.6202 7.01995Z"/>
<path d="M11.5602 8.43994H8.74023V11.2599H11.5602V8.43994Z"/>
</svg>
