<svg width="12" height="12" viewBox="0 0 12 12" xmlns="http://www.w3.org/2000/svg">
<path d="M9.27328 0.0783699C8.61874 0.0778618 7.99075 0.337086 7.52714 0.799139C7.06354 1.26119 6.80221 1.88832 6.80052 2.54286V5.27537C6.54586 5.29256 6.28547 5.30339 6.01553 5.30339C5.74559 5.30339 5.48647 5.31421 5.23053 5.32949V2.54286C5.22012 1.89399 4.95505 1.27523 4.49251 0.820053C4.02997 0.364875 3.40703 0.10977 2.75809 0.10977C2.10914 0.10977 1.48621 0.364875 1.02367 0.820053C0.561125 1.27523 0.296057 1.89399 0.285645 2.54286V9.07365C0.296057 9.72251 0.561125 10.3413 1.02367 10.7965C1.48621 11.2516 2.10914 11.5067 2.75809 11.5067C3.40703 11.5067 4.02997 11.2516 4.49251 10.7965C4.95505 10.3413 5.22012 9.72251 5.23053 9.07365V6.34113C5.4852 6.32394 5.74559 6.31312 6.01553 6.31312C6.28547 6.31312 6.54459 6.3023 6.80052 6.28702V9.07365C6.81093 9.72251 7.076 10.3413 7.53854 10.7965C8.00108 11.2516 8.62402 11.5067 9.27297 11.5067C9.92191 11.5067 10.5448 11.2516 11.0074 10.7965C11.4699 10.3413 11.735 9.72251 11.7454 9.07365V2.54286C11.7437 1.88843 11.4825 1.2614 11.019 0.799364C10.5555 0.337329 9.92771 0.0780305 9.27328 0.0783699ZM2.75777 1.0881C3.14406 1.08793 3.51464 1.241 3.7882 1.51373C4.06176 1.78646 4.21597 2.15657 4.21698 2.54286V5.43645C3.4936 5.54127 2.7872 5.74099 2.11602 6.03045C1.82522 6.15808 1.55147 6.32147 1.30111 6.51685V2.54286C1.30212 2.15701 1.45597 1.78729 1.72899 1.51463C2.002 1.24198 2.37193 1.08861 2.75777 1.0881ZM4.21698 9.07365C4.21698 9.46066 4.06324 9.83181 3.78959 10.1055C3.51593 10.3791 3.14478 10.5329 2.75777 10.5329C2.37076 10.5329 1.99961 10.3791 1.72595 10.1055C1.4523 9.83181 1.29856 9.46066 1.29856 9.07365V8.41853C1.29856 7.83982 1.75695 7.29166 2.52539 6.95041C3.06685 6.71681 3.63497 6.55067 4.21698 6.45573V9.07365ZM9.27328 10.5284C8.887 10.5286 8.51642 10.3755 8.24285 10.1028C7.96929 9.83005 7.81509 9.45994 7.81407 9.07365V6.18006C8.53745 6.07524 9.24386 5.87552 9.91503 5.58606C10.2058 5.45843 10.4796 5.29504 10.7299 5.09966V9.07365C10.7289 9.4595 10.5751 9.82922 10.3021 10.1019C10.0291 10.3745 9.65913 10.5279 9.27328 10.5284ZM9.50566 4.66228C8.96421 4.89588 8.39608 5.06202 7.81407 5.15696V2.54286C7.81407 2.15585 7.96781 1.78469 8.24147 1.51104C8.51512 1.23738 8.88628 1.08365 9.27328 1.08365C9.66029 1.08365 10.0314 1.23738 10.3051 1.51104C10.5788 1.78469 10.7325 2.15585 10.7325 2.54286V3.19797C10.7325 3.77414 10.2741 4.3223 9.50566 4.66228Z"/>
</svg>
