<svg viewBox="0 0 7 12" xmlns="http://www.w3.org/2000/svg">
<path d="M3.4151 0.0148929C2.96555 0.0171349 2.52086 0.108383 2.10639 0.283441C1.69194 0.458499 1.31583 0.713955 0.999572 1.03517C0.683308 1.35639 0.433076 1.7371 0.263166 2.15557C0.0932575 2.57403 0.00700336 3.02205 0.00932291 3.47403V4.61658H2.77654V2.96123C2.77649 2.88349 2.7917 2.80652 2.82127 2.73467C2.85084 2.66284 2.89422 2.59757 2.94888 2.54261C3.00355 2.48764 3.06845 2.44405 3.13989 2.41428C3.21133 2.38454 3.28789 2.36925 3.3652 2.36927H3.46497C3.5423 2.36925 3.61888 2.38454 3.69032 2.41428C3.76176 2.44405 3.82667 2.48764 3.88136 2.54261C3.93602 2.59757 3.9794 2.66284 4.00899 2.73467C4.03858 2.80652 4.05379 2.88349 4.05376 2.96123V7.39886C4.41718 7.39886 4.77701 7.32691 5.11275 7.18708C5.44849 7.04727 5.75357 6.84235 6.01052 6.58398C6.26748 6.32562 6.47131 6.01891 6.61037 5.68134C6.74944 5.34379 6.82099 4.98196 6.82099 4.61658V3.47403C6.82295 2.55824 6.46428 1.67892 5.82338 1.02822C5.5089 0.707116 5.134 0.452153 4.72054 0.27818C4.30708 0.104211 3.86331 0.0147042 3.4151 0.0148929Z"/>
<path d="M3.46561 9.64594H3.36584C3.28853 9.64596 3.21197 9.63065 3.14053 9.60091C3.06911 9.57117 3.00421 9.52755 2.94954 9.47258C2.89488 9.41764 2.85152 9.35239 2.82193 9.28058C2.79236 9.20876 2.77714 9.13179 2.77716 9.05405V4.61646C2.41376 4.61643 2.0539 4.68837 1.71815 4.82818C1.3824 4.96798 1.07734 5.17291 0.820376 5.43127C0.56341 5.68964 0.359573 5.99637 0.22052 6.33394C0.0814646 6.67151 0.00991294 7.03332 0.00994421 7.39869V8.52538C0.0053341 8.978 0.0900242 9.42708 0.259115 9.84661C0.428208 10.2661 0.678346 10.6478 0.995064 10.9695C1.31178 11.2912 1.68879 11.5466 2.1043 11.7209C2.5198 11.8952 2.96557 11.985 3.41578 11.985C3.866 11.985 4.31174 11.8952 4.72724 11.7209C5.14275 11.5466 5.51978 11.2912 5.83649 10.9695C6.1532 10.6478 6.40335 10.2661 6.57243 9.84661C6.74152 9.42708 6.82621 8.978 6.82161 8.52538V7.39869H4.0544V9.05405C4.0544 9.13179 4.03916 9.20876 4.00957 9.28058C3.97997 9.35239 3.9366 9.41766 3.88193 9.47263C3.82726 9.52759 3.76234 9.57117 3.6909 9.60091C3.61948 9.63065 3.54292 9.64596 3.46561 9.64594Z"/>
</svg>
