<svg width="12" height="10" viewBox="0 0 12 10" xmlns="http://www.w3.org/2000/svg">
<path d="M2.72051 4.74919C2.72051 4.62882 2.81855 4.53125 2.9395 4.53125H11.0422C11.1631 4.53125 11.2612 4.62882 11.2612 4.74919C11.2612 4.86955 11.1631 4.96712 11.0422 4.96712H2.9395C2.81855 4.96712 2.72051 4.86955 2.72051 4.74919Z"/>
<path d="M1.07807 5.70811C1.07807 5.58774 1.17611 5.49017 1.29706 5.49017H7.20984C7.33078 5.49017 7.42883 5.58774 7.42883 5.70811C7.42883 5.82847 7.33078 5.92604 7.20984 5.92604H1.29706C1.17611 5.92604 1.07807 5.82847 1.07807 5.70811Z"/>
<path d="M6.57476 8.36693C6.45381 8.36693 6.35577 8.4645 6.35577 8.58486C6.35577 8.70522 6.45381 8.8028 6.57476 8.8028H10.2319C10.3529 8.8028 10.4509 8.70522 10.4509 8.58486C10.4509 8.4645 10.3529 8.36693 10.2319 8.36693H6.57476Z"/>
<path d="M4.12205 9.54378C4.12205 9.42342 4.2201 9.32585 4.34104 9.32585H7.97631C8.09725 9.32585 8.1953 9.42342 8.1953 9.54378C8.1953 9.66414 8.09725 9.76172 7.97631 9.76172H4.34104C4.2201 9.76172 4.12205 9.66414 4.12205 9.54378Z"/>
<path d="M2.9395 6.44909C2.81855 6.44909 2.72051 6.54666 2.72051 6.66702C2.72051 6.78739 2.81855 6.88496 2.9395 6.88496H10.0786C10.1996 6.88496 10.2976 6.78739 10.2976 6.66702C10.2976 6.54666 10.1996 6.44909 10.0786 6.44909H2.9395Z"/>
<path d="M1.49415 7.62594C1.49415 7.50558 1.5922 7.40801 1.71314 7.40801H4.56004C4.68098 7.40801 4.77903 7.50558 4.77903 7.62594C4.77903 7.74631 4.68098 7.84388 4.56004 7.84388H1.71314C1.5922 7.84388 1.49415 7.74631 1.49415 7.62594Z"/>
<path d="M5.3922 7.40801C5.27126 7.40801 5.17321 7.50558 5.17321 7.62594C5.17321 7.74631 5.27126 7.84388 5.3922 7.84388H11.305C11.4259 7.84388 11.524 7.74631 11.524 7.62594C11.524 7.50558 11.4259 7.40801 11.305 7.40801H5.3922Z"/>
<path d="M2.41392 4.74919C2.41392 4.86955 2.31587 4.96712 2.19493 4.96712C2.07398 4.96712 1.97593 4.86955 1.97593 4.74919C1.97593 4.62882 2.07398 4.53125 2.19493 4.53125C2.31587 4.53125 2.41392 4.62882 2.41392 4.74919Z"/>
<path d="M0.552488 5.92604C0.673436 5.92604 0.77148 5.82847 0.77148 5.70811C0.77148 5.58774 0.673436 5.49017 0.552488 5.49017C0.43154 5.49017 0.333496 5.58774 0.333496 5.70811C0.333496 5.82847 0.43154 5.92604 0.552488 5.92604Z"/>
<path d="M6.04918 8.58486C6.04918 8.70522 5.95114 8.8028 5.83019 8.8028C5.70924 8.8028 5.6112 8.70522 5.6112 8.58486C5.6112 8.4645 5.70924 8.36693 5.83019 8.36693C5.95114 8.36693 6.04918 8.4645 6.04918 8.58486Z"/>
<path d="M3.59647 9.76172C3.71742 9.76172 3.81546 9.66414 3.81546 9.54378C3.81546 9.42342 3.71742 9.32585 3.59647 9.32585C3.47552 9.32585 3.37748 9.42342 3.37748 9.54378C3.37748 9.66414 3.47552 9.76172 3.59647 9.76172Z"/>
<path d="M2.41392 6.66702C2.41392 6.78739 2.31587 6.88496 2.19493 6.88496C2.07398 6.88496 1.97593 6.78739 1.97593 6.66702C1.97593 6.54666 2.07398 6.44909 2.19493 6.44909C2.31587 6.44909 2.41392 6.54666 2.41392 6.66702Z"/>
<path d="M0.968572 7.84388C1.08952 7.84388 1.18756 7.74631 1.18756 7.62594C1.18756 7.50558 1.08952 7.40801 0.968572 7.40801C0.847624 7.40801 0.74958 7.50558 0.74958 7.62594C0.74958 7.74631 0.847624 7.84388 0.968572 7.84388Z"/>
<path d="M10.2283 2.39061C10.4044 2.81367 10.495 3.2671 10.495 3.72502C10.495 3.82131 10.4166 3.89936 10.3198 3.89936H3.6625C3.56574 3.89936 3.4873 3.82131 3.4873 3.72502C3.4873 3.2671 3.57793 2.81367 3.75402 2.39061C3.93011 1.96755 4.1882 1.58314 4.51356 1.25935C4.83893 0.935554 5.22519 0.678705 5.6503 0.503467C6.07541 0.328231 6.53104 0.238037 6.99117 0.238037C7.45131 0.238037 7.90693 0.328231 8.33204 0.503467C8.75715 0.678705 9.14342 0.935554 9.46878 1.25935C9.79414 1.58314 10.0522 1.96755 10.2283 2.39061Z"/>
</svg>
