<svg width="18" height="18" viewBox="0 0 18 18" fill="none" xmlns="http://www.w3.org/2000/svg">
<path d="M9 13C11.2091 13 13 11.2091 13 9C13 6.79086 11.2091 5 9 5C6.79086 5 5 6.79086 5 9C5 11.2091 6.79086 13 9 13Z" stroke-width="2" stroke-miterlimit="10" stroke-linecap="round"/>
<path d="M2.89295 13.5232C1.91766 12.2065 1.39399 10.6099 1.39995 8.97147C1.40592 7.33302 1.9412 5.74033 2.92605 4.43071M13.5323 15.1011C12.2157 16.0789 10.6181 16.6046 8.97809 16.5999C7.33804 16.5951 5.74352 16.0601 4.43265 15.0748M15.0904 4.45275C16.0704 5.76548 16.5999 7.3597 16.5999 8.99778C16.5999 10.6359 16.0704 12.2301 15.0904 13.5428M4.46208 2.90302C5.77844 1.92348 7.37655 1.39617 9.01752 1.39992C10.6585 1.40368 12.2542 1.9383 13.566 2.92386" stroke-miterlimit="10"/>
</svg>
