<svg viewBox="4 7 12 6" xmlns="http://www.w3.org/2000/svg">
<path d="M7.08415 12.656C6.48815 12.656 6.00015 12.516 5.62015 12.236C5.24415 11.952 5.05615 11.544 5.05615 11.02C5.05615 10.908 5.06815 10.776 5.09215 10.616C5.15615 10.256 5.24815 9.82395 5.36815 9.31595C5.70815 7.93995 6.58815 7.25195 8.00415 7.25195C8.38815 7.25195 8.73615 7.31595 9.04015 7.44795C9.34415 7.57195 9.58415 7.76395 9.76015 8.01995C9.93615 8.27195 10.0242 8.57195 10.0242 8.91995C10.0242 9.02395 10.0122 9.15595 9.98815 9.31595C9.91215 9.75995 9.82415 10.196 9.71615 10.616C9.54015 11.3 9.24015 11.816 8.80815 12.156C8.38015 12.492 7.80415 12.656 7.08415 12.656ZM7.19215 11.576C7.47215 11.576 7.70815 11.492 7.90415 11.328C8.10415 11.164 8.24815 10.912 8.33215 10.568C8.44815 10.096 8.53615 9.68795 8.59615 9.33595C8.61615 9.23195 8.62815 9.12395 8.62815 9.01195C8.62815 8.55595 8.39215 8.32795 7.91615 8.32795C7.63615 8.32795 7.39615 8.41195 7.19615 8.57595C7.00015 8.73995 6.86015 8.99195 6.77615 9.33595C6.68415 9.67195 6.59615 10.08 6.50415 10.568C6.48415 10.668 6.47215 10.772 6.47215 10.884C6.46815 11.348 6.71215 11.576 7.19215 11.576Z"/>
<path d="M10.3718 12.5839C10.3158 12.5839 10.2758 12.5679 10.2438 12.5319C10.2198 12.4919 10.2118 12.4479 10.2198 12.3959L11.2558 7.51588C11.2638 7.45988 11.2918 7.41588 11.3398 7.37988C11.3838 7.34388 11.4318 7.32788 11.4838 7.32788H13.4798C14.0358 7.32788 14.4798 7.44388 14.8158 7.67188C15.1558 7.90388 15.3278 8.23588 15.3278 8.67188C15.3278 8.79588 15.3118 8.92788 15.2838 9.06388C15.1598 9.63988 14.9078 10.0639 14.5238 10.3399C14.1478 10.6159 13.6318 10.7519 12.9758 10.7519H11.9638L11.6198 12.3959C11.6078 12.4519 11.5838 12.4959 11.5358 12.5319C11.4918 12.5679 11.4438 12.5839 11.3918 12.5839H10.3718ZM13.0278 9.71588C13.2398 9.71588 13.4198 9.65988 13.5758 9.54388C13.7358 9.42788 13.8398 9.26388 13.8918 9.04788C13.9078 8.96388 13.9158 8.88788 13.9158 8.82388C13.9158 8.67988 13.8718 8.56788 13.7878 8.49188C13.7038 8.41188 13.5558 8.37188 13.3518 8.37188H12.4518L12.1678 9.71588H13.0278Z"/>
</svg>
