<svg width="13" height="12" viewBox="0 0 13 12" xmlns="http://www.w3.org/2000/svg">
<path d="M9.11679 3.95175C8.89789 3.82666 8.61644 3.82666 8.36626 3.95175L6.61501 4.98374L5.42667 5.64045L3.7067 6.67243C3.48779 6.79752 3.20634 6.79752 2.95617 6.67243L1.61146 5.85936C1.39256 5.73427 1.2362 5.48409 1.2362 5.20264V3.63903C1.2362 3.38885 1.36128 3.13867 1.61146 2.98231L2.95617 2.20051C3.17507 2.07542 3.45652 2.07542 3.7067 2.20051L5.0514 3.01358C5.27031 3.13867 5.42667 3.38885 5.42667 3.6703V4.70229L6.61501 4.0143V2.95104C6.61501 2.70086 6.48993 2.45069 6.23975 2.29432L3.73797 0.82453C3.51907 0.699441 3.23762 0.699441 2.98744 0.82453L0.423118 2.3256C0.17294 2.45069 0.0478516 2.70086 0.0478516 2.95104V5.89063C0.0478516 6.14081 0.17294 6.39099 0.423118 6.54735L2.95617 8.01714C3.17507 8.14223 3.45652 8.14223 3.7067 8.01714L5.42667 7.01643L6.61501 6.32844L8.33499 5.32773C8.55389 5.20264 8.83534 5.20264 9.08552 5.32773L10.4302 6.10954C10.6491 6.23462 10.8055 6.4848 10.8055 6.76625V8.32986C10.8055 8.58004 10.6804 8.83022 10.4302 8.98658L9.11679 9.76838C8.89789 9.89347 8.61644 9.89347 8.36626 9.76838L7.02155 8.98658C6.80265 8.86149 6.64629 8.61131 6.64629 8.32986V7.32915L5.45794 8.01714V9.04912C5.45794 9.2993 5.58303 9.54948 5.83321 9.70584L8.36626 11.1756C8.58516 11.3007 8.86661 11.3007 9.11679 11.1756L11.6498 9.70584C11.8687 9.58075 12.0251 9.33057 12.0251 9.04912V6.07826C12.0251 5.82808 11.9 5.57791 11.6498 5.42155L9.11679 3.95175Z"/>
</svg>
