<svg width="22" height="22" viewBox="0 0 22 22" fill="none" xmlns="http://www.w3.org/2000/svg">
<path d="M22 10.3889C22.0042 12.0021 21.6273 13.5934 20.9 15.0333C20.0376 16.7588 18.7119 18.2101 17.0713 19.2247C15.4307 20.2393 13.5401 20.777 11.6111 20.7778C9.99792 20.782 8.40657 20.4051 6.96666 19.6778L0 22L2.32222 15.0333C1.59491 13.5934 1.21801 12.0021 1.22222 10.3889C1.22297 8.45995 1.76074 6.56929 2.77532 4.9287C3.78989 3.28811 5.24119 1.96239 6.96666 1.10003C8.40657 0.372728 9.99792 -0.00417115 11.6111 3.48187e-05H12.2222C14.7697 0.14058 17.1759 1.21585 18.98 3.01997C20.7841 4.82409 21.8594 7.23027 22 9.7778V10.3889Z" fill="url(#paint0_linear_400_22837)"/>
<defs>
<linearGradient id="paint0_linear_400_22837" x1="4.125" y1="-8.54139e-07" x2="22.9171" y2="4.53847" gradientUnits="userSpaceOnUse">
<stop stop-color="#00B6F0"/>
<stop offset="1" stop-color="#1673FF"/>
</linearGradient>
</defs>
</svg>
