<svg width="81" height="80" viewBox="0 0 81 80" fill="none" xmlns="http://www.w3.org/2000/svg">
<path d="M51.5048 51.0263L50.5502 51.9742L50.8145 53.2886L50.8145 53.2888L50.8148 53.2902L50.8151 53.2915L50.8154 53.293L50.8172 53.3026C50.82 53.3176 50.825 53.3444 50.8317 53.3823C50.8452 53.4581 50.8656 53.5783 50.8899 53.7386C50.9385 54.0596 51.0026 54.5396 51.058 55.1446C51.1693 56.3589 51.2439 58.0538 51.0985 59.9648C50.859 63.1134 50.0403 66.6456 47.9969 69.6239L11.0285 32.5649C13.9657 30.5393 17.4731 29.7396 20.6163 29.5191C22.5236 29.3853 24.2186 29.4713 25.4344 29.5913C26.0401 29.651 26.521 29.7186 26.8427 29.7697C27.0034 29.7952 27.124 29.8165 27.2 29.8306C27.238 29.8376 27.2649 29.8428 27.28 29.8458L27.2913 29.848L27.2925 29.8483L27.2936 29.8485L27.2939 29.8485L27.2941 29.8486C27.2947 29.8487 27.2948 29.8487 27.2941 29.8486L28.643 30.1296L29.6013 29.1335L29.6013 29.1335L29.6014 29.1334L29.6019 29.1328L29.6044 29.1303L29.6148 29.1195L29.6575 29.0752L29.8289 28.8979C29.9808 28.741 30.2072 28.5076 30.5037 28.2034C31.0966 27.5949 31.9693 26.7035 33.0855 25.5748C35.3181 23.3174 38.5237 20.1117 42.411 16.3241L42.4329 16.3028L42.4544 16.2808C46.7292 11.9063 53.4813 10.6334 59.668 10.6294C62.6955 10.6274 65.439 10.9298 67.4285 11.2345C68.0522 11.33 68.599 11.4253 69.0541 11.5107C69.1399 11.9696 69.2358 12.5218 69.3319 13.152C69.6367 15.1513 69.9391 17.9079 69.9372 20.9486C69.9331 27.1637 68.6589 33.9388 64.2857 38.2122L64.2618 38.2356L64.2385 38.2596C62.6385 39.9091 59.4619 43.0942 56.6707 45.8811C55.2783 47.2715 53.9867 48.5579 53.0431 49.4968C52.5713 49.9662 52.1866 50.3487 51.9199 50.6138L51.6123 50.9195L51.532 50.9992L51.5116 51.0195L51.5065 51.0246L51.5052 51.0259L51.5049 51.0262C51.5048 51.0262 51.5048 51.0263 53.2663 52.8002L51.5048 51.0263ZM46.4976 21.0335L48.2663 22.8002L46.4976 21.0335C45.2166 22.3158 44.3446 23.9492 43.9917 25.7271C43.6389 27.505 43.821 29.3476 44.5151 31.0219C45.2092 32.6963 46.3841 34.1274 47.8913 35.1342C49.3986 36.141 51.1704 36.6783 52.983 36.6783C54.7956 36.6783 56.5674 36.141 58.0747 35.1342C59.5819 34.1274 60.7568 32.6963 61.4509 31.0219C62.145 29.3476 62.3271 27.505 61.9743 25.7271C61.6214 23.9492 60.7494 22.3158 59.4684 21.0335L57.8038 22.6963L59.4684 21.0335C58.6171 20.1812 57.6061 19.505 56.4933 19.0437L55.5359 21.3532L56.4933 19.0437C55.3805 18.5824 54.1876 18.345 52.983 18.345C51.7784 18.345 50.5855 18.5824 49.4727 19.0437C48.3599 19.505 47.3489 20.1812 46.4976 21.0335ZM17.0658 56.6019L23.5959 63.132C20.5525 65.3044 17.0344 66.7203 13.3357 67.2623C13.4483 66.1611 13.6343 64.8354 13.9401 63.4592C14.3275 61.7159 14.8876 59.9822 15.6736 58.5411C16.0973 57.7643 16.5619 57.1169 17.0658 56.6019Z" stroke="url(#paint0_linear_400_22823)" stroke-width="5"/>
<defs>
<linearGradient id="paint0_linear_400_22823" x1="72.2893" y1="8.0001" x2="7.48925" y2="73.6001" gradientUnits="userSpaceOnUse">
<stop stop-color="#FFA216"/>
<stop offset="1" stop-color="#FF1616"/>
</linearGradient>
</defs>
</svg>
