<svg width="24" height="25" viewBox="0 0 24 25" fill="none" xmlns="http://www.w3.org/2000/svg">
<path d="M4.25602 17.1845C3.13935 15.3005 2.74875 13.0737 3.15755 10.9222C3.56636 8.77059 4.74645 6.84222 6.47628 5.49908C8.20611 4.15593 10.3667 3.49037 12.5525 3.62736C14.7383 3.76434 16.7989 4.69444 18.3475 6.24304C19.8961 7.79165 20.8262 9.85227 20.9632 12.038C21.1002 14.2238 20.4346 16.3844 19.0915 18.1143C17.7483 19.8441 15.8199 21.0242 13.6684 21.433C11.5168 21.8418 9.29001 21.4512 7.40602 20.3345V20.3345L4.29352 21.2158C4.16599 21.2531 4.03079 21.2554 3.90207 21.2224C3.77335 21.1895 3.65586 21.1226 3.56191 21.0286C3.46796 20.9347 3.40101 20.8172 3.36809 20.6885C3.33516 20.5597 3.33747 20.4245 3.37477 20.297L4.25602 17.1845Z" stroke="#969696" stroke-width="1.5" stroke-linecap="round" stroke-linejoin="round"/>
<path d="M9 11.0908H15" stroke="#969696" stroke-width="1.5" stroke-linecap="round" stroke-linejoin="round"/>
<path d="M9 14.0908H15" stroke="#969696" stroke-width="1.5" stroke-linecap="round" stroke-linejoin="round"/>
</svg>
