<svg width="24" height="25" viewBox="0 0 24 25" fill="none" xmlns="http://www.w3.org/2000/svg">
<path d="M12 15.5908C14.0711 15.5908 15.75 13.9119 15.75 11.8408C15.75 9.76975 14.0711 8.09082 12 8.09082C9.92893 8.09082 8.25 9.76975 8.25 11.8408C8.25 13.9119 9.92893 15.5908 12 15.5908Z" stroke="#969696" stroke-width="1.5" stroke-miterlimit="10"/>
<path d="M5.98145 19.2846C6.54574 18.1731 7.40678 17.2396 8.46914 16.5875C9.5315 15.9354 10.7537 15.5903 12.0002 15.5903C13.2467 15.5903 14.4689 15.9354 15.5312 16.5875C16.5936 17.2396 17.4547 18.1731 18.0189 19.2846" stroke="#969696" stroke-width="1.5" stroke-linecap="round" stroke-linejoin="round"/>
<path d="M16.5 5.84082H21" stroke="#969696" stroke-width="1.5" stroke-linecap="round" stroke-linejoin="round"/>
<path d="M18.75 3.59082V8.09082" stroke="#969696" stroke-width="1.5" stroke-linecap="round" stroke-linejoin="round"/>
<path d="M20.8875 11.1752C20.9633 11.6433 21.0009 12.1167 21 12.5908C21 14.3709 20.4722 16.1109 19.4832 17.591C18.4943 19.071 17.0887 20.2246 15.4442 20.9058C13.7996 21.5869 11.99 21.7652 10.2442 21.4179C8.49836 21.0706 6.89472 20.2135 5.63604 18.9548C4.37737 17.6961 3.5202 16.0925 3.17294 14.3466C2.82567 12.6008 3.0039 10.7912 3.68509 9.14669C4.36628 7.50215 5.51983 6.09654 6.99987 5.10761C8.47991 4.11868 10.22 3.59084 12 3.59084C12.4741 3.58991 12.9476 3.62753 13.4156 3.70334" stroke="#969696" stroke-width="1.5" stroke-linecap="round" stroke-linejoin="round"/>
</svg>
