<svg width="24" height="25" viewBox="0 0 24 25" fill="none" xmlns="http://www.w3.org/2000/svg">
<path d="M4.5 3.9519L19.5 20.4519" stroke="#969696" stroke-width="1.5" stroke-linecap="round" stroke-linejoin="round"/>
<path d="M14.522 14.9769C13.8338 15.6074 12.9334 15.9555 12.0001 15.9519C11.2432 15.9519 10.5041 15.7227 9.87984 15.2947C9.25561 14.8667 8.77551 14.2598 8.50265 13.5538C8.22979 12.8479 8.17695 12.0758 8.35107 11.3392C8.52519 10.6027 8.91812 9.93602 9.47821 9.42694" stroke="#969696" stroke-width="1.5" stroke-linecap="round" stroke-linejoin="round"/>
<path d="M6.9375 6.63312C3.1125 8.56437 1.5 12.2019 1.5 12.2019C1.5 12.2019 4.5 18.9519 12 18.9519C13.7574 18.9662 15.4929 18.5612 17.0625 17.7706" stroke="#969696" stroke-width="1.5" stroke-linecap="round" stroke-linejoin="round"/>
<path d="M19.556 16.0551C21.5997 14.2269 22.4997 12.2019 22.4997 12.2019C22.4997 12.2019 19.4997 5.45193 11.9997 5.45193C11.3495 5.45064 10.7004 5.50396 10.0591 5.6113" stroke="#969696" stroke-width="1.5" stroke-linecap="round" stroke-linejoin="round"/>
<path d="M12.7031 8.51752C13.5006 8.66862 14.2273 9.07501 14.7735 9.67537C15.3198 10.2757 15.6559 11.0375 15.7313 11.8456" stroke="#969696" stroke-width="1.5" stroke-linecap="round" stroke-linejoin="round"/>
</svg>
