<svg width="24" height="25" viewBox="0 0 24 25" fill="none" xmlns="http://www.w3.org/2000/svg">
<path d="M11.4652 6.8956L13.3215 5.03935C14.1074 4.32302 15.1391 3.93707 16.2022 3.96168C17.2653 3.98629 18.278 4.41958 19.03 5.1715C19.7819 5.92343 20.2152 6.93616 20.2398 7.99926C20.2644 9.06235 19.8784 10.0941 19.1621 10.88L16.509 13.5237C16.1266 13.9075 15.6722 14.2121 15.1719 14.4199C14.6716 14.6276 14.1351 14.7346 13.5934 14.7346C13.0516 14.7346 12.5152 14.6276 12.0148 14.4199C11.5145 14.2121 11.0601 13.9075 10.6777 13.5237" stroke="#969696" stroke-width="1.5" stroke-linecap="round" stroke-linejoin="round"/>
<path d="M12.5344 17.5081L10.6782 19.3643C9.89227 20.0807 8.86057 20.4666 7.79747 20.442C6.73438 20.4174 5.72164 19.9841 4.96972 19.2322C4.2178 18.4803 3.78451 17.4675 3.7599 16.4044C3.73529 15.3413 4.12124 14.3096 4.83756 13.5237L7.49069 10.88C7.87306 10.4962 8.32744 10.1916 8.82778 9.98383C9.32811 9.77603 9.86455 9.66907 10.4063 9.66907C10.9481 9.66907 11.4845 9.77603 11.9849 9.98383C12.4852 10.1916 12.9396 10.4962 13.3219 10.88" stroke="#969696" stroke-width="1.5" stroke-linecap="round" stroke-linejoin="round"/>
</svg>
