<svg width="24" height="25" viewBox="0 0 24 25" fill="none" xmlns="http://www.w3.org/2000/svg">
<path d="M12 15.0908C14.0711 15.0908 15.75 13.4119 15.75 11.3408C15.75 9.26975 14.0711 7.59082 12 7.59082C9.92893 7.59082 8.25 9.26975 8.25 11.3408C8.25 13.4119 9.92893 15.0908 12 15.0908Z" stroke="#969696" stroke-width="1.5" stroke-linecap="round" stroke-linejoin="round"/>
<path d="M19.5 3.84082H4.5C4.08579 3.84082 3.75 4.17661 3.75 4.59082V19.5908C3.75 20.005 4.08579 20.3408 4.5 20.3408H19.5C19.9142 20.3408 20.25 20.005 20.25 19.5908V4.59082C20.25 4.17661 19.9142 3.84082 19.5 3.84082Z" stroke="#969696" stroke-width="1.5" stroke-linecap="round" stroke-linejoin="round"/>
<path d="M5.41895 20.3408C5.75882 18.8495 6.5951 17.5179 7.79078 16.564C8.98647 15.6102 10.4707 15.0907 12.0002 15.0907C13.5297 15.0907 15.0139 15.6102 16.2096 16.564C17.4053 17.5179 18.2416 18.8495 18.5814 20.3408" stroke="#969696" stroke-width="1.5" stroke-linecap="round" stroke-linejoin="round"/>
</svg>
