<svg width="24" height="25" viewBox="0 0 24 25" fill="none" xmlns="http://www.w3.org/2000/svg">
<path d="M9 11.8408C13.1421 11.8408 16.5 10.3298 16.5 8.46582C16.5 6.60186 13.1421 5.09082 9 5.09082C4.85786 5.09082 1.5 6.60186 1.5 8.46582C1.5 10.3298 4.85786 11.8408 9 11.8408Z" stroke="#969696" stroke-width="1.5" stroke-linecap="round" stroke-linejoin="round"/>
<path d="M1.5 8.46582V12.2158C1.5 14.0814 4.85625 15.5908 9 15.5908C13.1438 15.5908 16.5 14.0814 16.5 12.2158V8.46582" stroke="#969696" stroke-width="1.5" stroke-linecap="round" stroke-linejoin="round"/>
<path d="M6 11.5596V15.3096" stroke="#969696" stroke-width="1.5" stroke-linecap="round" stroke-linejoin="round"/>
<path d="M16.5 9.65649C19.9219 9.97524 22.5 11.3346 22.5 12.9659C22.5 14.8315 19.1438 16.3409 15 16.3409C13.1625 16.3409 11.475 16.0409 10.1719 15.5534" stroke="#969696" stroke-width="1.5" stroke-linecap="round" stroke-linejoin="round"/>
<path d="M7.5 15.5252V16.7158C7.5 18.5814 10.8562 20.0908 15 20.0908C19.1438 20.0908 22.5 18.5814 22.5 16.7158V12.9658" stroke="#969696" stroke-width="1.5" stroke-linecap="round" stroke-linejoin="round"/>
<path d="M18 16.0596V19.8096" stroke="#969696" stroke-width="1.5" stroke-linecap="round" stroke-linejoin="round"/>
<path d="M12 11.5596V19.8096" stroke="#969696" stroke-width="1.5" stroke-linecap="round" stroke-linejoin="round"/>
</svg>
