<svg width="24" height="25" viewBox="0 0 24 25" fill="none" xmlns="http://www.w3.org/2000/svg">
<path d="M16.5186 9.54883H21.0186V5.04883" stroke="#969696" stroke-width="1.5" stroke-linecap="round" stroke-linejoin="round"/>
<path d="M6.16895 6.37076C6.93431 5.60427 7.84329 4.99619 8.84387 4.58131C9.84445 4.16643 10.917 3.95288 12.0002 3.95288C13.0834 3.95288 14.1559 4.16643 15.1565 4.58131C16.1571 4.99619 17.0661 5.60427 17.8314 6.37076L21.0189 9.54888" stroke="#969696" stroke-width="1.5" stroke-linecap="round" stroke-linejoin="round"/>
<path d="M7.48145 14.855H2.98145V19.355" stroke="#969696" stroke-width="1.5" stroke-linecap="round" stroke-linejoin="round"/>
<path d="M17.8314 18.0331C17.0661 18.7996 16.1571 19.4077 15.1565 19.8225C14.1559 20.2374 13.0834 20.451 12.0002 20.451C10.917 20.451 9.84445 20.2374 8.84387 19.8225C7.84329 19.4077 6.93431 18.7996 6.16895 18.0331L2.98145 14.855" stroke="#969696" stroke-width="1.5" stroke-linecap="round" stroke-linejoin="round"/>
</svg>
