<svg width="32" height="32" viewBox="0 0 32 32" fill="none" xmlns="http://www.w3.org/2000/svg">
<g filter="url(#filter0_b_898_13837)">
<path d="M16 28C22.6274 28 28 22.6274 28 16C28 9.37258 22.6274 4 16 4C9.37258 4 4 9.37258 4 16C4 22.6274 9.37258 28 16 28Z" fill="#161616" fill-opacity="0.2"/>
<path d="M16 28C22.6274 28 28 22.6274 28 16C28 9.37258 22.6274 4 16 4C9.37258 4 4 9.37258 4 16C4 22.6274 9.37258 28 16 28Z" stroke="url(#paint0_linear_898_13837)" stroke-width="2" stroke-linecap="round" stroke-linejoin="round"/>
</g>
<path d="M21.5 13L14.1625 20L10.5 16.5" stroke="url(#paint1_linear_898_13837)" stroke-width="2" stroke-linecap="round" stroke-linejoin="round"/>
<defs>
<filter id="filter0_b_898_13837" x="-9" y="-9" width="50" height="50" filterUnits="userSpaceOnUse" color-interpolation-filters="sRGB">
<feFlood flood-opacity="0" result="BackgroundImageFix"/>
<feGaussianBlur in="BackgroundImageFix" stdDeviation="6"/>
<feComposite in2="SourceAlpha" operator="in" result="effect1_backgroundBlur_898_13837"/>
<feBlend mode="normal" in="SourceGraphic" in2="effect1_backgroundBlur_898_13837" result="shape"/>
</filter>
<linearGradient id="paint0_linear_898_13837" x1="8.5" y1="4" x2="29.0005" y2="8.95106" gradientUnits="userSpaceOnUse">
<stop stop-color="#00F0EC"/>
<stop offset="1" stop-color="#16FFC5"/>
</linearGradient>
<linearGradient id="paint1_linear_898_13837" x1="12.5625" y1="13" x2="21.2547" y2="16.2988" gradientUnits="userSpaceOnUse">
<stop stop-color="#00F0EC"/>
<stop offset="1" stop-color="#16FFC5"/>
</linearGradient>
</defs>
</svg>
