<svg width="24" height="25" viewBox="0 0 24 25" fill="none" xmlns="http://www.w3.org/2000/svg">
<path d="M12.3807 17.5211L16.742 20.2902C17.3044 20.6449 17.9967 20.1171 17.8323 19.4681L16.5689 14.5012C16.5347 14.3635 16.5402 14.219 16.5846 14.0842C16.629 13.9495 16.7105 13.8301 16.8198 13.7397L20.7311 10.4774C21.2416 10.0534 20.982 9.19676 20.3157 9.15349L15.2103 8.82467C15.071 8.81656 14.9371 8.76806 14.8249 8.68507C14.7128 8.60209 14.6272 8.48823 14.5787 8.3574L12.6749 3.56352C12.6246 3.42499 12.5328 3.30531 12.412 3.22075C12.2913 3.13618 12.1474 3.09082 12 3.09082C11.8526 3.09082 11.7087 3.13618 11.588 3.22075C11.4672 3.30531 11.3754 3.42499 11.325 3.56352L9.42135 8.3574C9.37283 8.48823 9.28725 8.60209 9.17507 8.68507C9.06289 8.76806 8.92896 8.81656 8.78966 8.82467L3.68428 9.15349C3.01798 9.19676 2.75838 10.0534 3.26892 10.4774L7.18017 13.7397C7.28949 13.8301 7.37105 13.9495 7.41544 14.0842C7.45984 14.219 7.46527 14.3635 7.43111 14.5012L6.26293 19.1047C6.06391 19.8835 6.89461 20.5151 7.56091 20.0911L11.6193 17.5211C11.7331 17.4488 11.8651 17.4103 12 17.4103C12.1349 17.4103 12.2669 17.4488 12.3807 17.5211V17.5211Z" stroke="#969696" stroke-width="1.5" stroke-linecap="round" stroke-linejoin="round"/>
</svg>
