<svg width="32" height="33" viewBox="0 0 32 33" fill="none" xmlns="http://www.w3.org/2000/svg">
<path d="M12.2222 8.59082C11.7213 8.59082 11.2408 8.78983 10.8866 9.14406C10.5323 9.4983 10.3333 9.97874 10.3333 10.4797V13.8575C10.3333 14.0784 10.5124 14.2575 10.7333 14.2575H11.8222C12.0431 14.2575 12.2222 14.0784 12.2222 13.8575V10.8797C12.2222 10.6588 12.4013 10.4797 12.6222 10.4797H19.3778C19.5987 10.4797 19.7778 10.6588 19.7778 10.8797V12.913C19.7778 13.134 19.5987 13.313 19.3778 13.313H18.3824C18.026 13.313 17.8475 13.7439 18.0995 13.9959L20.4394 16.3358C20.5956 16.492 20.8489 16.492 21.0051 16.3358L23.3449 13.9959C23.5969 13.7439 23.4185 13.313 23.0621 13.313H22.0667C21.8458 13.313 21.6667 13.134 21.6667 12.913V10.4797C21.6667 9.97874 21.4677 9.4983 21.1134 9.14406C20.7592 8.78983 20.2787 8.59082 19.7778 8.59082H12.2222ZM7.9 16.1464C7.67909 16.1464 7.5 16.3255 7.5 16.5464V17.6353C7.5 17.8562 7.67909 18.0353 7.9 18.0353H14.6556C14.8765 18.0353 15.0556 17.8562 15.0556 17.6353V16.5464C15.0556 16.3255 14.8765 16.1464 14.6556 16.1464H7.9ZM7.9 18.9797C7.67909 18.9797 7.5 19.1588 7.5 19.3797V20.4686C7.5 20.6895 7.67909 20.8686 7.9 20.8686H14.6556C14.8765 20.8686 15.0556 20.6895 15.0556 20.4686V19.3797C15.0556 19.1588 14.8765 18.9797 14.6556 18.9797H7.9ZM17.3444 18.9797C17.1235 18.9797 16.9444 19.1588 16.9444 19.3797V20.4686C16.9444 20.6895 17.1235 20.8686 17.3444 20.8686H24.1C24.3209 20.8686 24.5 20.6895 24.5 20.4686V19.3797C24.5 19.1588 24.3209 18.9797 24.1 18.9797H17.3444ZM7.9 21.813C7.67909 21.813 7.5 21.9921 7.5 22.213V23.3019C7.5 23.5228 7.67909 23.7019 7.9 23.7019H14.6556C14.8765 23.7019 15.0556 23.5228 15.0556 23.3019V22.213C15.0556 21.9921 14.8765 21.813 14.6556 21.813H7.9ZM17.3444 21.813C17.1235 21.813 16.9444 21.9921 16.9444 22.213V23.3019C16.9444 23.5228 17.1235 23.7019 17.3444 23.7019H24.1C24.3209 23.7019 24.5 23.5228 24.5 23.3019V22.213C24.5 21.9921 24.3209 21.813 24.1 21.813H17.3444Z" fill="#969696"/>
</svg>
