<svg width="9" height="8" viewBox="0 0 9 8" fill="none" xmlns="http://www.w3.org/2000/svg">
<path fill-rule="evenodd" clip-rule="evenodd" d="M0.97876 4.0001C0.97876 3.86749 1.03144 3.74031 1.12521 3.64655C1.21897 3.55278 1.34615 3.5001 1.47876 3.5001H7.27176L5.12476 1.3541C5.07827 1.30761 5.0414 1.25242 5.01624 1.19168C4.99108 1.13094 4.97813 1.06584 4.97813 1.0001C4.97813 0.934357 4.99108 0.869256 5.01624 0.808517C5.0414 0.747777 5.07827 0.692588 5.12476 0.646101C5.17125 0.599613 5.22644 0.562736 5.28718 0.537577C5.34792 0.512418 5.41302 0.499469 5.47876 0.499469C5.5445 0.499469 5.6096 0.512418 5.67034 0.537577C5.73108 0.562736 5.78627 0.599613 5.83276 0.646101L8.83276 3.6461C8.87932 3.69255 8.91627 3.74772 8.94147 3.80847C8.96668 3.86921 8.97965 3.93433 8.97965 4.0001C8.97965 4.06587 8.96668 4.13099 8.94147 4.19173C8.91627 4.25248 8.87932 4.30766 8.83276 4.3541L5.83276 7.3541C5.78627 7.40059 5.73108 7.43746 5.67034 7.46262C5.6096 7.48778 5.5445 7.50073 5.47876 7.50073C5.41302 7.50073 5.34792 7.48778 5.28718 7.46262C5.22644 7.43746 5.17125 7.40059 5.12476 7.3541C5.03087 7.26021 4.97813 7.13288 4.97813 7.0001C4.97813 6.93436 4.99108 6.86926 5.01624 6.80852C5.0414 6.74778 5.07827 6.69259 5.12476 6.6461L7.27176 4.5001H1.47876C1.34615 4.5001 1.21897 4.44742 1.12521 4.35365C1.03144 4.25989 0.97876 4.13271 0.97876 4.0001Z" fill="#F5F5F5"/>
</svg>
