<svg width="40" height="40" viewBox="0 0 40 40" fill="none" xmlns="http://www.w3.org/2000/svg">
<path d="M8.78124 16.2501C8.77916 14.7682 9.07028 13.3005 9.63784 11.9316C10.2054 10.5627 11.0382 9.3196 12.0882 8.27391C13.1383 7.22823 14.3848 6.40062 15.7561 5.83875C17.1274 5.27689 18.5962 4.99187 20.0781 5.00011C26.2656 5.04699 31.2187 10.1876 31.2187 16.3907V17.5001C31.2187 23.0939 32.3906 26.3439 33.4219 28.1251C33.5314 28.3148 33.5891 28.53 33.5893 28.749C33.5895 28.9681 33.5322 29.1833 33.423 29.3732C33.3138 29.5631 33.1566 29.721 32.9672 29.831C32.7778 29.941 32.5628 29.9993 32.3437 30.0001H7.65624C7.4372 29.9993 7.2222 29.941 7.03279 29.831C6.84337 29.721 6.6862 29.5631 6.57701 29.3732C6.46782 29.1833 6.41045 28.9681 6.41065 28.749C6.41084 28.53 6.46859 28.3148 6.57812 28.1251C7.60937 26.3439 8.78124 23.0939 8.78124 17.5001V16.2501Z" stroke="#969696" stroke-width="2.5" stroke-linecap="round" stroke-linejoin="round"/>
<path d="M15 29.9999V31.2499C15 32.576 15.5268 33.8478 16.4645 34.7855C17.4021 35.7232 18.6739 36.2499 20 36.2499C21.3261 36.2499 22.5979 35.7232 23.5355 34.7855C24.4732 33.8478 25 32.576 25 31.2499V29.9999" stroke="#969696" stroke-width="2.5" stroke-linecap="round" stroke-linejoin="round"/>
</svg>
