<svg width="24" height="25" viewBox="0 0 24 25" fill="none" xmlns="http://www.w3.org/2000/svg">
<path d="M4.25626 17.0938C3.13959 15.2098 2.74899 12.983 3.1578 10.8315C3.5666 8.67989 4.74669 6.75153 6.47652 5.40838C8.20636 4.06523 10.367 3.39967 12.5527 3.53666C14.7385 3.67364 16.7991 4.60374 18.3477 6.15235C19.8963 7.70095 20.8264 9.76157 20.9634 11.9473C21.1004 14.1331 20.4348 16.2937 19.0917 18.0236C17.7486 19.7534 15.8202 20.9335 13.6686 21.3423C11.5171 21.7511 9.29025 21.3605 7.40626 20.2438V20.2438L4.29376 21.1251C4.16624 21.1624 4.03103 21.1647 3.90231 21.1317C3.77359 21.0988 3.6561 21.0319 3.56215 20.9379C3.4682 20.844 3.40126 20.7265 3.36833 20.5978C3.33541 20.469 3.33771 20.3338 3.37501 20.2063L4.25626 17.0938Z" stroke="#969696" stroke-width="1.5" stroke-linecap="round" stroke-linejoin="round"/>
<path d="M9 11H15" stroke="#969696" stroke-width="1.5" stroke-linecap="round" stroke-linejoin="round"/>
<path d="M9 14H15" stroke="#969696" stroke-width="1.5" stroke-linecap="round" stroke-linejoin="round"/>
</svg>
