<svg width="25" height="24" viewBox="0 0 25 24" fill="none" xmlns="http://www.w3.org/2000/svg">
<path d="M8.51648 3.75C7.98605 3.75 7.47734 3.96071 7.10227 4.33579C6.72719 4.71086 6.51648 5.21957 6.51648 5.75V9.35C6.51648 9.57091 6.69557 9.75 6.91648 9.75H8.11648C8.33739 9.75 8.51648 9.57091 8.51648 9.35V6.15C8.51648 5.92909 8.69557 5.75 8.91648 5.75H16.1165C16.3374 5.75 16.5165 5.92909 16.5165 6.15V8.35C16.5165 8.57091 16.3374 8.75 16.1165 8.75H14.9822C14.6258 8.75 14.4473 9.18086 14.6993 9.43284L17.2336 11.9672C17.3898 12.1234 17.6431 12.1234 17.7993 11.9672L20.3336 9.43284C20.5856 9.18086 20.4072 8.75 20.0508 8.75H18.9165C18.6956 8.75 18.5165 8.57091 18.5165 8.35V5.75C18.5165 5.21957 18.3058 4.71086 17.9307 4.33579C17.5556 3.96071 17.0469 3.75 16.5165 3.75H8.51648ZM3.91648 11.75C3.69557 11.75 3.51648 11.9291 3.51648 12.15V13.35C3.51648 13.5709 3.69557 13.75 3.91648 13.75H11.1165C11.3374 13.75 11.5165 13.5709 11.5165 13.35V12.15C11.5165 11.9291 11.3374 11.75 11.1165 11.75H3.91648ZM3.91648 14.75C3.69557 14.75 3.51648 14.9291 3.51648 15.15V16.35C3.51648 16.5709 3.69557 16.75 3.91648 16.75H11.1165C11.3374 16.75 11.5165 16.5709 11.5165 16.35V15.15C11.5165 14.9291 11.3374 14.75 11.1165 14.75H3.91648ZM13.9165 14.75C13.6956 14.75 13.5165 14.9291 13.5165 15.15V16.35C13.5165 16.5709 13.6956 16.75 13.9165 16.75H21.1165C21.3374 16.75 21.5165 16.5709 21.5165 16.35V15.15C21.5165 14.9291 21.3374 14.75 21.1165 14.75H13.9165ZM3.91648 17.75C3.69557 17.75 3.51648 17.9291 3.51648 18.15V19.35C3.51648 19.5709 3.69557 19.75 3.91648 19.75H11.1165C11.3374 19.75 11.5165 19.5709 11.5165 19.35V18.15C11.5165 17.9291 11.3374 17.75 11.1165 17.75H3.91648ZM13.9165 17.75C13.6956 17.75 13.5165 17.9291 13.5165 18.15V19.35C13.5165 19.5709 13.6956 19.75 13.9165 19.75H21.1165C21.3374 19.75 21.5165 19.5709 21.5165 19.35V18.15C21.5165 17.9291 21.3374 17.75 21.1165 17.75H13.9165Z" fill="url(#paint0_linear_282_12172)"/>
<defs>
<linearGradient id="paint0_linear_282_12172" x1="6.89148" y1="3.75" x2="22.045" y2="7.86719" gradientUnits="userSpaceOnUse">
<stop stop-color="#00F0EC"/>
<stop offset="1" stop-color="#16FFC5"/>
</linearGradient>
</defs>
</svg>
