<svg width="37" height="36" viewBox="0 0 37 36" fill="none" xmlns="http://www.w3.org/2000/svg">
<circle opacity="0.1" cx="18.9788" cy="18" r="18" fill="#161616"/>
<path d="M29 7H9C8.44772 7 8 7.44772 8 8V28C8 28.5523 8.44772 29 9 29H29C29.5523 29 30 28.5523 30 28V8C30 7.44772 29.5523 7 29 7Z" stroke="#969696" stroke-width="1.5" stroke-linecap="round" stroke-linejoin="round"/>
<path d="M25 5V9" stroke="#969696" stroke-width="1.5" stroke-linecap="round" stroke-linejoin="round"/>
<path d="M13 5V9" stroke="#969696" stroke-width="1.5" stroke-linecap="round" stroke-linejoin="round"/>
<path d="M8 13H30" stroke="#969696" stroke-width="1.5" stroke-linecap="round" stroke-linejoin="round"/>
<path d="M14.5 18H18L16 20.5C16.3291 20.4994 16.6533 20.5801 16.9438 20.7349C17.2343 20.8897 17.4821 21.1137 17.6653 21.3872C17.8484 21.6607 17.9612 21.9752 17.9937 22.3027C18.0261 22.6303 17.9773 22.9608 17.8514 23.2649C17.7255 23.569 17.5265 23.8374 17.272 24.0462C17.0176 24.2549 16.7155 24.3977 16.3927 24.4618C16.0698 24.5258 15.7361 24.5092 15.4212 24.4134C15.1063 24.3176 14.82 24.1455 14.5875 23.9125" stroke="#969696" stroke-width="1.5" stroke-linecap="round" stroke-linejoin="round"/>
<path d="M21 19.5L23 18V24.5" stroke="#969696" stroke-width="1.5" stroke-linecap="round" stroke-linejoin="round"/>
</svg>
