<svg width="44" height="44" viewBox="0 0 44 44" fill="none" xmlns="http://www.w3.org/2000/svg">
    <rect width="44" height="44" rx="22" fill="#202020"/>
    <path d="M15.8312 23.75L11.5 27.25V13.25C11.5 13.0179 11.5922 12.7954 11.7563 12.6313C11.9204 12.4672 12.1429 12.375 12.375 12.375H26.375C26.6071 12.375 26.8296 12.4672 26.9937 12.6313C27.1578 12.7954 27.25 13.0179 27.25 13.25V22.875C27.25 23.1071 27.1578 23.3296 26.9937 23.4937C26.8296 23.6578 26.6071 23.75 26.375 23.75H15.8312Z" stroke="#969696" stroke-width="2" stroke-linecap="round" stroke-linejoin="round"/>
    <path d="M16.75 23.75V28.125C16.75 28.3571 16.8422 28.5796 17.0063 28.7437C17.1704 28.9078 17.3929 29 17.625 29H28.1687L32.5 32.5V18.5C32.5 18.2679 32.4078 18.0454 32.2437 17.8813C32.0796 17.7172 31.8571 17.625 31.625 17.625H27.25" stroke="#969696" stroke-width="2" stroke-linecap="round" stroke-linejoin="round"/>
</svg>
