<svg width="37" height="36" viewBox="0 0 37 36" fill="none" xmlns="http://www.w3.org/2000/svg">
<circle opacity="0.1" cx="18.9788" cy="18" r="18" fill="#161616"/>
<path d="M8.67509 23.1251C7.1862 20.6131 6.66541 17.644 7.21048 14.7753C7.75555 11.9065 9.329 9.33537 11.6354 7.5445C13.9419 5.75364 16.8227 4.86623 19.7371 5.04888C22.6514 5.23152 25.3989 6.47165 27.4637 8.53646C29.5285 10.6013 30.7687 13.3488 30.9513 16.2631C31.134 19.1775 30.2465 22.0583 28.4557 24.3647C26.6648 26.6712 24.0937 28.2446 21.2249 28.7897C18.3561 29.3348 15.3871 28.814 12.8751 27.3251V27.3251L8.72509 28.5001C8.55507 28.5498 8.37479 28.5529 8.20317 28.509C8.03154 28.4651 7.87488 28.3758 7.74962 28.2506C7.62435 28.1253 7.53509 27.9686 7.49119 27.797C7.44729 27.6254 7.45036 27.4451 7.50009 27.2751L8.67509 23.1251Z" stroke="#969696" stroke-width="1.5" stroke-linecap="round" stroke-linejoin="round"/>
<path d="M15 15H23" stroke="#969696" stroke-width="1.5" stroke-linecap="round" stroke-linejoin="round"/>
<path d="M15 19H23" stroke="#969696" stroke-width="1.5" stroke-linecap="round" stroke-linejoin="round"/>
</svg>
