<svg width="40" height="40" viewBox="0 0 40 40" fill="none" xmlns="http://www.w3.org/2000/svg">
<path d="M20 11.2501V13.7501" stroke="#969696" stroke-width="2.5" stroke-linecap="round" stroke-linejoin="round"/>
<path d="M20 26.2501V28.7501" stroke="#969696" stroke-width="2.5" stroke-linecap="round" stroke-linejoin="round"/>
<path d="M20 35.0001C28.2843 35.0001 35 28.2844 35 20.0001C35 11.7159 28.2843 5.00012 20 5.00012C11.7157 5.00012 5 11.7159 5 20.0001C5 28.2844 11.7157 35.0001 20 35.0001Z" stroke="#969696" stroke-width="2.5" stroke-linecap="round" stroke-linejoin="round"/>
<path d="M16.25 26.2501H21.875C22.7038 26.2501 23.4987 25.9209 24.0847 25.3348C24.6708 24.7488 25 23.9539 25 23.1251C25 22.2963 24.6708 21.5015 24.0847 20.9154C23.4987 20.3294 22.7038 20.0001 21.875 20.0001H18.125C17.2962 20.0001 16.5013 19.6709 15.9153 19.0848C15.3292 18.4988 15 17.7039 15 16.8751C15 16.0463 15.3292 15.2515 15.9153 14.6654C16.5013 14.0794 17.2962 13.7501 18.125 13.7501H23.75" stroke="#969696" stroke-width="2.5" stroke-linecap="round" stroke-linejoin="round"/>
</svg>
