<svg width="24" height="25" viewBox="0 0 24 25" fill="none" xmlns="http://www.w3.org/2000/svg">
<path d="M9 15.125C9.62132 15.125 10.125 14.6213 10.125 14C10.125 13.3787 9.62132 12.875 9 12.875C8.37868 12.875 7.875 13.3787 7.875 14C7.875 14.6213 8.37868 15.125 9 15.125Z" fill="#969696"/>
<path d="M15 15.125C15.6213 15.125 16.125 14.6213 16.125 14C16.125 13.3787 15.6213 12.875 15 12.875C14.3787 12.875 13.875 13.3787 13.875 14C13.875 14.6213 14.3787 15.125 15 15.125Z" fill="#969696"/>
<path d="M6.9751 7.99996C8.60096 7.4904 10.2963 7.23736 12.0001 7.24996C13.7039 7.23736 15.3992 7.4904 17.0251 7.99996" stroke="#969696" stroke-width="1.5" stroke-linecap="round" stroke-linejoin="round"/>
<path d="M17.0251 17C15.3992 17.5096 13.7039 17.7626 12.0001 17.75C10.2963 17.7626 8.60096 17.5096 6.9751 17" stroke="#969696" stroke-width="1.5" stroke-linecap="round" stroke-linejoin="round"/>
<path d="M14.5312 17.5723L15.6655 19.8223C15.7385 19.9757 15.8627 20.0989 16.0166 20.1708C16.1706 20.2426 16.3448 20.2586 16.5093 20.216C18.8062 19.6535 20.7937 18.6785 22.2374 17.4223C22.3462 17.3262 22.4253 17.201 22.4652 17.0615C22.505 16.9219 22.5041 16.7738 22.4624 16.6348L19.2843 6.02227C19.2533 5.91366 19.1974 5.81383 19.1208 5.73079C19.0443 5.64775 18.9494 5.58382 18.8437 5.54415C17.9458 5.17577 17.0172 4.88716 16.0687 4.68164C15.8864 4.64173 15.6958 4.67032 15.5332 4.76196C15.3707 4.85361 15.2476 5.00189 15.1874 5.17852L14.4468 7.41915" stroke="#969696" stroke-width="1.5" stroke-linecap="round" stroke-linejoin="round"/>
<path d="M9.46861 17.5723L8.33423 19.8223C8.26124 19.9757 8.1371 20.0989 7.98312 20.1708C7.82915 20.2426 7.65496 20.2586 7.49048 20.216C5.19361 19.6535 3.20611 18.6785 1.76236 17.4223C1.65351 17.3262 1.57447 17.201 1.53459 17.0615C1.49471 16.9219 1.49567 16.7738 1.53736 16.6348L4.71548 6.02227C4.74641 5.91366 4.80239 5.81383 4.87891 5.73079C4.95544 5.64775 5.05038 5.58382 5.15611 5.54415C6.054 5.17577 6.98259 4.88716 7.93111 4.68164C8.11338 4.64173 8.30398 4.67032 8.46652 4.76196C8.62906 4.85361 8.75217 5.00189 8.81236 5.17852L9.55298 7.41915" stroke="#969696" stroke-width="1.5" stroke-linecap="round" stroke-linejoin="round"/>
<path d="M9 15.125C9.62132 15.125 10.125 14.6213 10.125 14C10.125 13.3787 9.62132 12.875 9 12.875C8.37868 12.875 7.875 13.3787 7.875 14C7.875 14.6213 8.37868 15.125 9 15.125Z" fill="#969696"/>
<path d="M15 15.125C15.6213 15.125 16.125 14.6213 16.125 14C16.125 13.3787 15.6213 12.875 15 12.875C14.3787 12.875 13.875 13.3787 13.875 14C13.875 14.6213 14.3787 15.125 15 15.125Z" fill="#969696"/>
<path d="M6.9751 7.99996C8.60096 7.4904 10.2963 7.23736 12.0001 7.24996C13.7039 7.23736 15.3992 7.4904 17.0251 7.99996" stroke="#969696" stroke-width="1.5" stroke-linecap="round" stroke-linejoin="round"/>
<path d="M17.0251 17C15.3992 17.5096 13.7039 17.7626 12.0001 17.75C10.2963 17.7626 8.60096 17.5096 6.9751 17" stroke="#969696" stroke-width="1.5" stroke-linecap="round" stroke-linejoin="round"/>
<path d="M14.5312 17.5723L15.6655 19.8223C15.7385 19.9757 15.8627 20.0989 16.0166 20.1708C16.1706 20.2426 16.3448 20.2586 16.5093 20.216C18.8062 19.6535 20.7937 18.6785 22.2374 17.4223C22.3462 17.3262 22.4253 17.201 22.4652 17.0615C22.505 16.9219 22.5041 16.7738 22.4624 16.6348L19.2843 6.02227C19.2533 5.91366 19.1974 5.81383 19.1208 5.73079C19.0443 5.64775 18.9494 5.58382 18.8437 5.54415C17.9458 5.17577 17.0172 4.88716 16.0687 4.68164C15.8864 4.64173 15.6958 4.67032 15.5332 4.76196C15.3707 4.85361 15.2476 5.00189 15.1874 5.17852L14.4468 7.41915" stroke="#969696" stroke-width="1.5" stroke-linecap="round" stroke-linejoin="round"/>
<path d="M9.46861 17.5723L8.33423 19.8223C8.26124 19.9757 8.1371 20.0989 7.98312 20.1708C7.82915 20.2426 7.65496 20.2586 7.49048 20.216C5.19361 19.6535 3.20611 18.6785 1.76236 17.4223C1.65351 17.3262 1.57447 17.201 1.53459 17.0615C1.49471 16.9219 1.49567 16.7738 1.53736 16.6348L4.71548 6.02227C4.74641 5.91366 4.80239 5.81383 4.87891 5.73079C4.95544 5.64775 5.05038 5.58382 5.15611 5.54415C6.054 5.17577 6.98259 4.88716 7.93111 4.68164C8.11338 4.64173 8.30398 4.67032 8.46652 4.76196C8.62906 4.85361 8.75217 5.00189 8.81236 5.17852L9.55298 7.41915" stroke="#969696" stroke-width="1.5" stroke-linecap="round" stroke-linejoin="round"/>
</svg>
