<svg width="32" height="32" viewBox="0 0 32 32" fill="none" xmlns="http://www.w3.org/2000/svg">
<circle opacity="0.1" cx="16" cy="16" r="16" fill="#303030"/>
<path d="M7.74976 9H23.856C24.0015 9.00005 24.1438 9.0424 24.2656 9.12191C24.3875 9.20141 24.4836 9.31463 24.5422 9.44777C24.6008 9.58092 24.6194 9.72824 24.5958 9.87179C24.5722 10.0153 24.5073 10.1489 24.4091 10.2563L18.2498 17.0344C18.1216 17.1716 18.0511 17.3529 18.0529 17.5406V22.8469C18.054 22.9715 18.0237 23.0944 17.9647 23.2042C17.9057 23.314 17.82 23.4072 17.7154 23.475L14.7154 25.4719C14.6029 25.546 14.4724 25.5884 14.3378 25.5947C14.2032 25.601 14.0694 25.5709 13.9505 25.5076C13.8315 25.4443 13.7318 25.3501 13.6619 25.2349C13.5919 25.1198 13.5543 24.9879 13.5529 24.8531V17.5406C13.5547 17.3529 13.4842 17.1716 13.356 17.0344L7.19664 10.2563C7.09844 10.1489 7.03358 10.0153 7.00995 9.87179C6.98633 9.72824 7.00497 9.58092 7.06359 9.44777C7.12221 9.31463 7.21829 9.20141 7.34013 9.12191C7.46196 9.0424 7.60428 9.00005 7.74976 9V9Z" stroke="#969696" stroke-width="1.75" stroke-linecap="round" stroke-linejoin="round"/>
</svg>
