<svg width="28" height="24" viewBox="0 0 28 24" fill="none" xmlns="http://www.w3.org/2000/svg">
<path d="M24.6874 2.82871L24.6877 2.82905C25.2675 3.40853 25.7274 4.09656 26.0412 4.85384C26.3549 5.61111 26.5164 6.42279 26.5164 7.24249C26.5164 8.06219 26.3549 8.87387 26.0412 9.63114C25.7274 10.3884 25.2675 11.0765 24.6877 11.6559L24.6876 11.6561L23.2922 13.0515L13.7579 22.5858L4.22354 13.0515L2.82818 11.6561C1.65761 10.4855 1 8.89791 1 7.24249C1 5.58707 1.65761 3.99944 2.82818 2.82888C3.99874 1.65832 5.58636 1.0007 7.24179 1.0007C8.89721 1.0007 10.4848 1.65832 11.6554 2.82888L13.0508 4.22424C13.4413 4.61477 14.0744 4.61477 14.465 4.22424L15.8603 2.82888L15.8605 2.82872C16.44 2.24896 17.128 1.78906 17.8853 1.47528C18.6426 1.1615 19.4542 1 20.2739 1C21.0937 1 21.9053 1.1615 22.6626 1.47528C23.4199 1.78906 24.1079 2.24896 24.6874 2.82871Z" stroke="url(#paint0_linear_11_3106)" stroke-width="2" stroke-linecap="round" stroke-linejoin="round"/>
<defs>
<linearGradient id="paint0_linear_11_3106" x1="5.15933" y1="-9.31788e-07" x2="28.2631" y2="6.39731" gradientUnits="userSpaceOnUse">
<stop stop-color="#FA16FF"/>
<stop offset="1" stop-color="#F00056"/>
</linearGradient>
</defs>
</svg>
