<svg width="28" height="28" viewBox="0 0 28 28" fill="none" xmlns="http://www.w3.org/2000/svg">
    <path d="M14.6236 23.1765L23.483 14.3171C25.6595 12.1296 25.9767 8.55303 23.9205 6.26709C23.4048 5.69103 22.777 5.22615 22.0756 4.90087C21.3742 4.57559 20.6138 4.39674 19.841 4.37525C19.0681 4.35375 18.299 4.49006 17.5806 4.77584C16.8622 5.06163 16.2096 5.4909 15.6627 6.03741L14.0002 7.71084L12.5673 6.26709C10.3798 4.09053 6.80328 3.77334 4.51734 5.82959C3.94127 6.34528 3.4764 6.97301 3.15112 7.67442C2.82584 8.37584 2.64699 9.13621 2.62549 9.90907C2.60399 10.6819 2.7403 11.4511 3.02609 12.1695C3.31188 12.8879 3.74114 13.5405 4.28765 14.0874L13.3767 23.1765C13.5426 23.3408 13.7667 23.433 14.0002 23.433C14.2336 23.433 14.4577 23.3408 14.6236 23.1765Z" fill="#FF166A" stroke="#FF166A" stroke-width="2" stroke-linecap="round" stroke-linejoin="round"/>
</svg>
