<svg width="40" height="40" viewBox="0 0 40 40" fill="none" xmlns="http://www.w3.org/2000/svg">
    <path d="M19.9906 28.2101C24.5654 28.2101 28.2741 24.5015 28.2741 19.9266C28.2741 15.3517 24.5654 11.6431 19.9906 11.6431C15.4157 11.6431 11.707 15.3517 11.707 19.9266C11.707 24.5015 15.4157 28.2101 19.9906 28.2101Z" stroke="url(#paint0_linear_1_2065)" stroke-width="4" stroke-miterlimit="10" stroke-linecap="round"/>
    <path d="M7.71402 29.102C5.75203 26.4524 4.69855 23.2399 4.71055 19.943C4.72255 16.6461 5.79938 13.4413 7.78061 10.8061M29.1172 32.2771C26.4687 34.2445 23.2548 35.3024 19.9555 35.2928C16.6562 35.2833 13.4485 34.2067 10.8114 32.224M32.2516 10.8504C34.2231 13.4919 35.2883 16.6998 35.2883 19.9959C35.2883 23.2921 34.2231 26.4999 32.2516 29.1414M10.8706 7.73209C13.5188 5.76105 16.7337 4.7 20.0348 4.70756C23.3359 4.71512 26.546 5.79087 29.185 7.77401" stroke="url(#paint1_linear_1_2065)" stroke-width="2" stroke-miterlimit="10"/>
    <defs>
        <linearGradient id="paint0_linear_1_2065" x1="14.8134" y1="11.6431" x2="28.9647" y2="15.0608" gradientUnits="userSpaceOnUse">
            <stop stop-color="#00F0EC"/>
            <stop offset="1" stop-color="#16FFC5"/>
        </linearGradient>
        <linearGradient id="paint1_linear_1_2065" x1="10.4438" y1="4.70752" x2="36.5637" y2="11.0142" gradientUnits="userSpaceOnUse">
            <stop stop-color="#00F0EC"/>
            <stop offset="1" stop-color="#16FFC5"/>
        </linearGradient>
    </defs>
</svg>
