<svg width="18" height="19" viewBox="0 0 18 19" fill="none" xmlns="http://www.w3.org/2000/svg">
<path d="M9 9.90332C10.2426 9.90332 11.25 8.89596 11.25 7.65332C11.25 6.41068 10.2426 5.40332 9 5.40332C7.75736 5.40332 6.75 6.41068 6.75 7.65332C6.75 8.89596 7.75736 9.90332 9 9.90332Z" stroke="#969696" stroke-width="1.25" stroke-linecap="round" stroke-linejoin="round"/>
<path d="M14.625 7.65332C14.625 12.7158 9 16.6533 9 16.6533C9 16.6533 3.375 12.7158 3.375 7.65332C3.375 6.16148 3.96763 4.73074 5.02252 3.67584C6.07742 2.62095 7.50816 2.02832 9 2.02832C10.4918 2.02832 11.9226 2.62095 12.9775 3.67584C14.0324 4.73074 14.625 6.16148 14.625 7.65332V7.65332Z" stroke="#969696" stroke-width="1.25" stroke-linecap="round" stroke-linejoin="round"/>
</svg>
