<svg width="24" height="24" viewBox="0 0 24 24" fill="none" xmlns="http://www.w3.org/2000/svg">
<path d="M19.7157 3.36566L2.24068 8.28753C2.09193 8.3282 1.95932 8.41374 1.86094 8.53249C1.76255 8.65125 1.70316 8.79745 1.69087 8.95117C1.67857 9.1049 1.71396 9.25867 1.79221 9.39156C1.87047 9.52445 1.98779 9.62998 2.12818 9.69378L10.1532 13.4907C10.3104 13.5635 10.4366 13.6897 10.5094 13.8469L14.3063 21.8719C14.3701 22.0123 14.4756 22.1296 14.6085 22.2079C14.7414 22.2861 14.8952 22.3215 15.0489 22.3092C15.2026 22.2969 15.3488 22.2375 15.4676 22.1392C15.5864 22.0408 15.6719 21.9082 15.7126 21.7594L20.6344 4.28441C20.6717 4.15689 20.674 4.02168 20.6411 3.89296C20.6082 3.76424 20.5412 3.64675 20.4473 3.5528C20.3533 3.45885 20.2359 3.39191 20.1071 3.35898C19.9784 3.32605 19.8432 3.32836 19.7157 3.36566V3.36566Z" stroke="url(#paint0_linear_940_12074)" stroke-width="1.5" stroke-linecap="round" stroke-linejoin="round"/>
<path d="M10.397 13.6031L14.6345 9.3656" stroke="url(#paint1_linear_940_12074)" stroke-width="1.5" stroke-linecap="round" stroke-linejoin="round"/>
<defs>
<linearGradient id="paint0_linear_940_12074" x1="5.24643" y1="3.33588" x2="21.4553" y2="7.25046" gradientUnits="userSpaceOnUse">
<stop stop-color="#00F0EC"/>
<stop offset="1" stop-color="#16FFC5"/>
</linearGradient>
<linearGradient id="paint1_linear_940_12074" x1="11.1915" y1="9.3656" x2="14.8111" y2="10.2398" gradientUnits="userSpaceOnUse">
<stop stop-color="#00F0EC"/>
<stop offset="1" stop-color="#16FFC5"/>
</linearGradient>
</defs>
</svg>
