<svg width="40" height="40" viewBox="0 0 40 40" fill="none" xmlns="http://www.w3.org/2000/svg">
<path d="M20 21.5C20.8284 21.5 21.5 20.8284 21.5 20C21.5 19.1716 20.8284 18.5 20 18.5C19.1716 18.5 18.5 19.1716 18.5 20C18.5 20.8284 19.1716 21.5 20 21.5Z" fill="url(#paint0_linear_1292_61693)"/>
<path d="M20 14.5C20.8284 14.5 21.5 13.8284 21.5 13C21.5 12.1716 20.8284 11.5 20 11.5C19.1716 11.5 18.5 12.1716 18.5 13C18.5 13.8284 19.1716 14.5 20 14.5Z" fill="url(#paint1_linear_1292_61693)"/>
<path d="M20 28.5C20.8284 28.5 21.5 27.8284 21.5 27C21.5 26.1716 20.8284 25.5 20 25.5C19.1716 25.5 18.5 26.1716 18.5 27C18.5 27.8284 19.1716 28.5 20 28.5Z" fill="url(#paint2_linear_1292_61693)"/>
<rect x="1.5" y="1.5" width="37" height="37" rx="18.5" stroke="url(#paint3_linear_1292_61693)" stroke-width="2"/>
<defs>
<linearGradient id="paint0_linear_1292_61693" x1="19.0625" y1="18.5" x2="21.6251" y2="19.1189" gradientUnits="userSpaceOnUse">
<stop stop-color="#00F0EC"/>
<stop offset="1" stop-color="#16FFC5"/>
</linearGradient>
<linearGradient id="paint1_linear_1292_61693" x1="19.0625" y1="11.5" x2="21.6251" y2="12.1189" gradientUnits="userSpaceOnUse">
<stop stop-color="#00F0EC"/>
<stop offset="1" stop-color="#16FFC5"/>
</linearGradient>
<linearGradient id="paint2_linear_1292_61693" x1="19.0625" y1="25.5" x2="21.6251" y2="26.1189" gradientUnits="userSpaceOnUse">
<stop stop-color="#00F0EC"/>
<stop offset="1" stop-color="#16FFC5"/>
</linearGradient>
<linearGradient id="paint3_linear_1292_61693" x1="7.8125" y1="0.499998" x2="41.1258" y2="8.54548" gradientUnits="userSpaceOnUse">
<stop stop-color="#00F0EC"/>
<stop offset="1" stop-color="#16FFC5"/>
</linearGradient>
</defs>
</svg>
