<svg width="44" height="44" viewBox="0 0 44 44" fill="none" xmlns="http://www.w3.org/2000/svg">
    <rect width="44" height="44" rx="22" fill="#202020"/>
    <path d="M14.1467 19.3751C14.1453 18.3378 14.3491 17.3104 14.7463 16.3522C15.1436 15.3939 15.7266 14.5238 16.4616 13.7918C17.1966 13.0598 18.0692 12.4805 19.0291 12.0872C19.989 11.6939 21.0172 11.4943 22.0545 11.5001C26.3858 11.5329 29.853 15.1314 29.853 19.4736V20.2501C29.853 24.1657 30.6733 26.4407 31.3952 27.6876C31.4718 27.8204 31.5123 27.971 31.5124 28.1244C31.5125 28.2777 31.4724 28.4284 31.3959 28.5613C31.3195 28.6942 31.2095 28.8047 31.0769 28.8817C30.9443 28.9588 30.7938 28.9996 30.6405 29.0001H13.3592C13.2059 28.9996 13.0554 28.9588 12.9228 28.8817C12.7902 28.8047 12.6802 28.6942 12.6038 28.5613C12.5273 28.4284 12.4872 28.2777 12.4873 28.1244C12.4874 27.971 12.5279 27.8204 12.6045 27.6876C13.3264 26.4407 14.1467 24.1657 14.1467 20.2501V19.3751Z" stroke="#969696" stroke-width="2" stroke-linecap="round" stroke-linejoin="round"/>
    <path d="M18.5 29V29.875C18.5 30.8033 18.8687 31.6935 19.5251 32.3499C20.1815 33.0063 21.0717 33.375 22 33.375C22.9283 33.375 23.8185 33.0063 24.4749 32.3499C25.1313 31.6935 25.5 30.8033 25.5 29.875V29" stroke="#969696" stroke-width="2" stroke-linecap="round" stroke-linejoin="round"/>
</svg>
