<svg width="44" height="44" viewBox="0 0 44 44" fill="none" xmlns="http://www.w3.org/2000/svg">
<circle cx="18.9788" cy="18" r="17.5" stroke="url(#paint0_linear_165_15656)"/>
<path d="M10.3999 14.5286C10.3984 13.4616 10.6081 12.4049 11.0167 11.4193C11.4253 10.4337 12.0249 9.53862 12.781 8.78573C13.537 8.03283 14.4345 7.43695 15.4218 7.03241C16.4091 6.62787 17.4667 6.42266 18.5337 6.42859C22.9887 6.46234 26.5549 10.1636 26.5549 14.6298V15.4286C26.5549 19.4561 27.3987 21.7961 28.1412 23.0786C28.2201 23.2152 28.2616 23.3701 28.2618 23.5278C28.2619 23.6855 28.2206 23.8405 28.142 23.9772C28.0634 24.1139 27.9502 24.2276 27.8138 24.3068C27.6775 24.386 27.5227 24.428 27.3649 24.4286H9.58995C9.43223 24.428 9.27743 24.386 9.14106 24.3068C9.00468 24.2276 8.89152 24.1139 8.8129 23.9772C8.73428 23.8405 8.69298 23.6855 8.69312 23.5278C8.69326 23.3701 8.73484 23.2152 8.8137 23.0786C9.5562 21.7961 10.3999 19.4561 10.3999 15.4286V14.5286Z" stroke="url(#paint1_linear_165_15656)" stroke-width="1.5" stroke-linecap="round" stroke-linejoin="round"/>
<path d="M14.8774 24.4287V25.3287C14.8774 26.2835 15.2567 27.1992 15.9319 27.8743C16.607 28.5494 17.5227 28.9287 18.4774 28.9287C19.4322 28.9287 20.3479 28.5494 21.023 27.8743C21.6982 27.1992 22.0774 26.2835 22.0774 25.3287V24.4287" stroke="url(#paint2_linear_165_15656)" stroke-width="1.5" stroke-linecap="round" stroke-linejoin="round"/>
<defs>
<linearGradient id="paint0_linear_165_15656" x1="7.72876" y1="-1.39768e-06" x2="38.4795" y2="7.42659" gradientUnits="userSpaceOnUse">
<stop stop-color="#00F0EC"/>
<stop offset="1" stop-color="#16FFC5"/>
</linearGradient>
<linearGradient id="paint1_linear_165_15656" x1="12.3622" y1="6.42847" x2="28.9117" y2="10.7736" gradientUnits="userSpaceOnUse">
<stop stop-color="#00F0EC"/>
<stop offset="1" stop-color="#16FFC5"/>
</linearGradient>
<linearGradient id="paint2_linear_165_15656" x1="16.2274" y1="24.4287" x2="21.8907" y2="26.6171" gradientUnits="userSpaceOnUse">
<stop stop-color="#00F0EC"/>
<stop offset="1" stop-color="#16FFC5"/>
</linearGradient>
</defs>
</svg>
