<svg width="25" height="24" viewBox="0 0 25 24" fill="none" xmlns="http://www.w3.org/2000/svg">
<path d="M12.9785 16.5C15.4638 16.5 17.4785 14.4853 17.4785 12C17.4785 9.51472 15.4638 7.5 12.9785 7.5C10.4932 7.5 8.47852 9.51472 8.47852 12C8.47852 14.4853 10.4932 16.5 12.9785 16.5Z" stroke="#969696" stroke-width="1.5" stroke-linecap="round" stroke-linejoin="round"/>
<path d="M18.2003 6.10327C18.4378 6.32202 18.6628 6.54702 18.8753 6.77827L21.4347 7.1439C21.8517 7.86812 22.1731 8.64332 22.3909 9.45015L20.8347 11.522C20.8347 11.522 20.8628 12.1595 20.8347 12.4783L22.3909 14.5501C22.1741 15.3573 21.8526 16.1326 21.4347 16.8564L18.8753 17.222C18.8753 17.222 18.4347 17.6814 18.2003 17.897L17.8347 20.4564C17.1104 20.8734 16.3352 21.1948 15.5284 21.4126L13.4565 19.8564C13.1384 19.8845 12.8184 19.8845 12.5003 19.8564L10.4284 21.4126C9.62125 21.1958 8.84592 20.8744 8.12217 20.4564L7.75654 17.897C7.52529 17.6783 7.30029 17.4533 7.08154 17.222L4.52217 16.8564C4.10515 16.1322 3.78373 15.357 3.56592 14.5501L5.12217 12.4783C5.12217 12.4783 5.09404 11.8408 5.12217 11.522L3.56592 9.45015C3.78272 8.64298 4.10419 7.86765 4.52217 7.1439L7.08154 6.77827C7.30029 6.54702 7.52529 6.32202 7.75654 6.10327L8.12217 3.5439C8.84639 3.12688 9.6216 2.80545 10.4284 2.58765L12.5003 4.1439C12.8184 4.11577 13.1384 4.11577 13.4565 4.1439L15.5284 2.58765C16.3356 2.80444 17.1109 3.12592 17.8347 3.5439L18.2003 6.10327Z" stroke="#969696" stroke-width="1.5" stroke-linecap="round" stroke-linejoin="round"/>
</svg>
