<svg width="25" height="24" viewBox="0 0 25 24" fill="none" xmlns="http://www.w3.org/2000/svg">
<path d="M6.51648 15C8.17333 15 9.51648 13.6569 9.51648 12C9.51648 10.3431 8.17333 9 6.51648 9C4.85963 9 3.51648 10.3431 3.51648 12C3.51648 13.6569 4.85963 15 6.51648 15Z" stroke="#969696" stroke-width="1.5" stroke-linecap="round" stroke-linejoin="round"/>
<path d="M17.0165 21.75C18.6733 21.75 20.0165 20.4069 20.0165 18.75C20.0165 17.0931 18.6733 15.75 17.0165 15.75C15.3596 15.75 14.0165 17.0931 14.0165 18.75C14.0165 20.4069 15.3596 21.75 17.0165 21.75Z" stroke="#969696" stroke-width="1.5" stroke-linecap="round" stroke-linejoin="round"/>
<path d="M17.0165 8.25C18.6733 8.25 20.0165 6.90685 20.0165 5.25C20.0165 3.59315 18.6733 2.25 17.0165 2.25C15.3596 2.25 14.0165 3.59315 14.0165 5.25C14.0165 6.90685 15.3596 8.25 17.0165 8.25Z" stroke="#969696" stroke-width="1.5" stroke-linecap="round" stroke-linejoin="round"/>
<path d="M14.4946 6.87207L9.03833 10.3783" stroke="#969696" stroke-width="1.5" stroke-linecap="round" stroke-linejoin="round"/>
<path d="M9.03833 13.6221L14.4946 17.1283" stroke="#969696" stroke-width="1.5" stroke-linecap="round" stroke-linejoin="round"/>
</svg>
