<svg width="24" height="25" viewBox="0 0 24 25" fill="none" xmlns="http://www.w3.org/2000/svg">
<path d="M8.2501 13.1469L16.6782 20.5625C16.7756 20.6488 16.8938 20.7082 17.0211 20.7349C17.1484 20.7617 17.2805 20.7549 17.4043 20.7152C17.5282 20.6754 17.6396 20.6042 17.7276 20.5084C17.8157 20.4126 17.8772 20.2956 17.9063 20.1688L21.4313 4.77503C21.4609 4.64246 21.4539 4.50435 21.4111 4.37544C21.3683 4.24654 21.2913 4.13168 21.1883 4.04312C21.0853 3.95457 20.9602 3.89565 20.8263 3.87265C20.6925 3.84965 20.5549 3.86343 20.4282 3.91253L3.12197 10.7094C2.42822 10.9813 2.52197 11.9938 3.25322 12.1438L8.2501 13.1469Z" stroke="#969696" stroke-width="1.5" stroke-linecap="round" stroke-linejoin="round"/>
<path d="M8.25 13.1473L21.0094 3.93164" stroke="#969696" stroke-width="1.5" stroke-linecap="round" stroke-linejoin="round"/>
<path d="M12.4594 16.8496L9.53437 19.7746C9.43002 19.8806 9.29653 19.9531 9.15085 19.983C9.00517 20.0129 8.85388 19.9989 8.71622 19.9426C8.57856 19.8863 8.46073 19.7904 8.37772 19.667C8.2947 19.5436 8.25025 19.3983 8.25 19.2496V13.1465" stroke="#969696" stroke-width="1.5" stroke-linecap="round" stroke-linejoin="round"/>
</svg>
