<svg width="24" height="25" viewBox="0 0 24 25" fill="none" xmlns="http://www.w3.org/2000/svg">
<path d="M12 8.74985C12 6.68735 13.7344 4.97173 15.7969 4.99985C16.5192 5.00819 17.2237 5.22496 17.8258 5.62411C18.4278 6.02326 18.9018 6.58779 19.1906 7.24985H22.5L19.4719 10.278C19.2765 13.3198 17.93 16.173 15.7061 18.2575C13.4823 20.342 10.5481 21.5014 7.50002 21.4999C4.50002 21.4999 3.75002 20.3749 3.75002 20.3749C3.75002 20.3749 6.75002 19.2499 8.25002 16.9999C8.25002 16.9999 2.25002 13.9999 3.75002 5.74985C3.75002 5.74985 7.50002 9.49985 12 10.2499V8.74985Z" stroke="#969696" stroke-width="1.5" stroke-linecap="round" stroke-linejoin="round"/>
</svg>
