<svg width="25" height="24" viewBox="0 0 25 24" fill="none" xmlns="http://www.w3.org/2000/svg">
<path d="M12.9785 15C15.0496 15 16.7285 13.3211 16.7285 11.25C16.7285 9.17893 15.0496 7.5 12.9785 7.5C10.9074 7.5 9.22852 9.17893 9.22852 11.25C9.22852 13.3211 10.9074 15 12.9785 15Z" stroke="#969696" stroke-width="1.5" stroke-linecap="round" stroke-linejoin="round"/>
<path d="M6.95996 18.6936C7.52425 17.5821 8.3853 16.6486 9.44766 15.9965C10.51 15.3444 11.7322 14.9993 12.9787 14.9993C14.2252 14.9993 15.4474 15.3444 16.5098 15.9965C17.5721 16.6486 18.4332 17.5821 18.9975 18.6936" stroke="#969696" stroke-width="1.5" stroke-linecap="round" stroke-linejoin="round"/>
<path d="M19.7285 12L21.9785 14.25L24.2285 12" stroke="#969696" stroke-width="1.5" stroke-linecap="round" stroke-linejoin="round"/>
<path d="M1.72852 12L3.97852 9.75L6.22852 12" stroke="#969696" stroke-width="1.5" stroke-linecap="round" stroke-linejoin="round"/>
<path d="M21.9787 14.2501V12.0001C21.9808 10.0556 21.3531 8.16267 20.1896 6.60473C19.026 5.04679 17.3891 3.90759 15.524 3.35766C13.6589 2.80773 11.6659 2.87665 9.84318 3.5541C8.02051 4.23155 6.46626 5.48109 5.41309 7.11569" stroke="#969696" stroke-width="1.5" stroke-linecap="round" stroke-linejoin="round"/>
<path d="M3.97852 9.75V12C3.9764 13.9445 4.6041 15.8374 5.76767 17.3953C6.93124 18.9533 8.56808 20.0925 10.4332 20.6424C12.2983 21.1923 14.2914 21.1234 16.1141 20.446C17.9367 19.7685 19.491 18.519 20.5441 16.8844" stroke="#969696" stroke-width="1.5" stroke-linecap="round" stroke-linejoin="round"/>
</svg>
