<svg width="24" height="25" viewBox="0 0 24 25" fill="none" xmlns="http://www.w3.org/2000/svg">
<path d="M12 21.5C16.9706 21.5 21 17.4706 21 12.5C21 7.52944 16.9706 3.5 12 3.5C7.02944 3.5 3 7.52944 3 12.5C3 17.4706 7.02944 21.5 12 21.5Z" stroke="#969696" stroke-width="1.5" stroke-miterlimit="10"/>
<path d="M3.51562 9.5H20.4844" stroke="#969696" stroke-width="1.5" stroke-linecap="round" stroke-linejoin="round"/>
<path d="M3.51562 15.5H20.4844" stroke="#969696" stroke-width="1.5" stroke-linecap="round" stroke-linejoin="round"/>
<path d="M12 21.2566C14.0711 21.2566 15.75 17.3363 15.75 12.5004C15.75 7.66445 14.0711 3.74414 12 3.74414C9.92893 3.74414 8.25 7.66445 8.25 12.5004C8.25 17.3363 9.92893 21.2566 12 21.2566Z" stroke="#969696" stroke-width="1.5" stroke-miterlimit="10"/>
</svg>
